<mxfile host="app.diagrams.net" agent="Mozilla/5.0 (Windows NT 10.0; Win64; x64) AppleWebKit/537.36 (KHTML, like Gecko) Chrome/133.0.0.0 Safari/537.36" version="26.1.0">
  <diagram id="Ht1M8jgEwFfnCIfOTk4-" name="Page-1">
    <mxGraphModel dx="1050" dy="-305" grid="1" gridSize="10" guides="1" tooltips="1" connect="1" arrows="1" fold="1" page="1" pageScale="1" pageWidth="1169" pageHeight="827" math="1" shadow="0">
      <root>
        <mxCell id="0" />
        <mxCell id="1" parent="0" />
        <mxCell id="WJZfMEvyKtw-Oj8JGxWV-38" value="" style="rounded=1;whiteSpace=wrap;html=1;fillColor=none;strokeWidth=2;strokeColor=#CC0000;arcSize=5;fontSize=22;" parent="1" vertex="1">
          <mxGeometry x="105" y="1136" width="788" height="454" as="geometry" />
        </mxCell>
        <mxCell id="8oLiAesK85d1lCOAaYAn-119" value="" style="rounded=1;whiteSpace=wrap;html=1;fillColor=none;arcSize=5;dashed=1;dashPattern=8 8;fontSize=22;" parent="1" vertex="1">
          <mxGeometry x="280" y="1140" width="280" height="440" as="geometry" />
        </mxCell>
        <mxCell id="WJZfMEvyKtw-Oj8JGxWV-70" value="" style="rounded=1;whiteSpace=wrap;html=1;fillColor=none;strokeWidth=2;fontSize=22;" parent="1" vertex="1">
          <mxGeometry x="488.5" y="946.87" width="404.5" height="137" as="geometry" />
        </mxCell>
        <mxCell id="7-pGLLORBGx0Y4iLze1Q-23" value="" style="rounded=1;whiteSpace=wrap;html=1;fillColor=none;arcSize=5;dashed=1;dashPattern=8 8;fontSize=22;" parent="1" vertex="1">
          <mxGeometry x="111" y="1140" width="141" height="440" as="geometry" />
        </mxCell>
        <mxCell id="7-pGLLORBGx0Y4iLze1Q-15" value="" style="rounded=1;whiteSpace=wrap;html=1;fillColor=none;arcSize=5;dashed=1;dashPattern=8 8;fontSize=22;" parent="1" vertex="1">
          <mxGeometry x="585" y="1140" width="213" height="440" as="geometry" />
        </mxCell>
        <mxCell id="8oLiAesK85d1lCOAaYAn-136" value="$${h}_{t}^{2,{\mathcal{U}}}$$" style="rounded=1;whiteSpace=wrap;html=1;fontSize=22;strokeColor=none;fillColor=none;" parent="1" vertex="1">
          <mxGeometry x="585" y="1334" width="61" height="40" as="geometry" />
        </mxCell>
        <mxCell id="8oLiAesK85d1lCOAaYAn-138" value="$${h}_{t}^{1,{\mathcal{U}}}$$" style="rounded=1;whiteSpace=wrap;html=1;fontSize=22;strokeColor=none;fillColor=none;" parent="1" vertex="1">
          <mxGeometry x="585" y="1255" width="61" height="40" as="geometry" />
        </mxCell>
        <mxCell id="8oLiAesK85d1lCOAaYAn-139" value="$${h}_{t}^{2,{\mathcal{M}}}$$" style="rounded=1;whiteSpace=wrap;html=1;fontSize=22;strokeColor=none;fillColor=none;" parent="1" vertex="1">
          <mxGeometry x="585" y="1414" width="64.5" height="40" as="geometry" />
        </mxCell>
        <mxCell id="WJZfMEvyKtw-Oj8JGxWV-71" value="MCTS" style="rounded=1;whiteSpace=wrap;html=1;fontSize=28;strokeColor=none;fillColor=none;fontFamily=Garamond;fontStyle=1" parent="1" vertex="1">
          <mxGeometry x="790" y="1083.87" width="103" height="40" as="geometry" />
        </mxCell>
        <mxCell id="Z81IoRc7hOrovhM4pghT-1" value="$$s_t^{\mathcal{M}}&lt;br style=&quot;font-size: 22px;&quot;&gt;$$" style="rounded=1;whiteSpace=wrap;html=1;fontSize=22;strokeColor=none;fillColor=none;" parent="1" vertex="1">
          <mxGeometry x="113.5" y="1414" width="40" height="40" as="geometry" />
        </mxCell>
        <mxCell id="WJZfMEvyKtw-Oj8JGxWV-2" value="$$s_t^{\mathcal{U}}&lt;br style=&quot;font-size: 22px;&quot;&gt;$$" style="rounded=1;whiteSpace=wrap;html=1;fontSize=22;strokeColor=none;fillColor=none;" parent="1" vertex="1">
          <mxGeometry x="106" y="1255" width="54" height="40" as="geometry" />
        </mxCell>
        <mxCell id="WJZfMEvyKtw-Oj8JGxWV-3" value="$$f_{\mathcal{U}}(\cdot)$$" style="rounded=1;whiteSpace=wrap;html=1;fontSize=22;strokeColor=none;fillColor=none;" parent="1" vertex="1">
          <mxGeometry x="147" y="1228" width="70" height="40" as="geometry" />
        </mxCell>
        <mxCell id="WJZfMEvyKtw-Oj8JGxWV-4" value="$$f_{\mathcal{M}}(\cdot)$$" style="rounded=1;whiteSpace=wrap;html=1;fontSize=22;strokeColor=none;fillColor=none;" parent="1" vertex="1">
          <mxGeometry x="147" y="1386" width="70" height="40" as="geometry" />
        </mxCell>
        <mxCell id="WJZfMEvyKtw-Oj8JGxWV-5" value="" style="endArrow=classic;html=1;rounded=0;fontSize=22;exitX=1;exitY=0.5;exitDx=0;exitDy=0;entryX=0;entryY=0.5;entryDx=0;entryDy=0;dashed=1;dashPattern=8 8;" parent="1" source="WJZfMEvyKtw-Oj8JGxWV-2" target="WJZfMEvyKtw-Oj8JGxWV-9" edge="1">
          <mxGeometry width="50" height="50" relative="1" as="geometry">
            <mxPoint x="159.5" y="1274.88" as="sourcePoint" />
            <mxPoint x="219.5" y="1274.88" as="targetPoint" />
          </mxGeometry>
        </mxCell>
        <mxCell id="WJZfMEvyKtw-Oj8JGxWV-6" value="" style="endArrow=classic;html=1;rounded=0;entryX=0;entryY=0.5;entryDx=0;entryDy=0;fontSize=22;exitX=1;exitY=0.5;exitDx=0;exitDy=0;dashed=1;dashPattern=8 8;" parent="1" source="Z81IoRc7hOrovhM4pghT-1" target="WJZfMEvyKtw-Oj8JGxWV-10" edge="1">
          <mxGeometry width="50" height="50" relative="1" as="geometry">
            <mxPoint x="153" y="1433" as="sourcePoint" />
            <mxPoint x="261.5" y="1435" as="targetPoint" />
          </mxGeometry>
        </mxCell>
        <mxCell id="WJZfMEvyKtw-Oj8JGxWV-9" value="$$\mathcal{X}_t^{\mathcal{U}}$$" style="rounded=1;whiteSpace=wrap;html=1;fontSize=22;strokeColor=none;fillColor=none;" parent="1" vertex="1">
          <mxGeometry x="200" y="1255" width="53.5" height="40" as="geometry" />
        </mxCell>
        <mxCell id="WJZfMEvyKtw-Oj8JGxWV-10" value="$$\mathcal{X}_t^{\mathcal{M}}$$" style="rounded=1;whiteSpace=wrap;html=1;fontSize=22;strokeColor=none;fillColor=none;" parent="1" vertex="1">
          <mxGeometry x="200" y="1414" width="53.5" height="40" as="geometry" />
        </mxCell>
        <mxCell id="WJZfMEvyKtw-Oj8JGxWV-11" value="$$\mathcal{H}_{t}^{1(1)}$$" style="rounded=1;whiteSpace=wrap;html=1;fontSize=22;strokeColor=none;fillColor=none;" parent="1" vertex="1">
          <mxGeometry x="270" y="1255" width="83" height="40" as="geometry" />
        </mxCell>
        <mxCell id="WJZfMEvyKtw-Oj8JGxWV-13" value="$$\mathcal{H}_{t}^{2(1)}$$" style="rounded=1;whiteSpace=wrap;html=1;fontSize=22;strokeColor=none;fillColor=none;" parent="1" vertex="1">
          <mxGeometry x="270" y="1414" width="83" height="40" as="geometry" />
        </mxCell>
        <mxCell id="WJZfMEvyKtw-Oj8JGxWV-14" value="" style="endArrow=classic;html=1;rounded=0;entryX=0;entryY=0.5;entryDx=0;entryDy=0;exitX=1;exitY=0.5;exitDx=0;exitDy=0;fontSize=22;" parent="1" source="WJZfMEvyKtw-Oj8JGxWV-10" target="WJZfMEvyKtw-Oj8JGxWV-13" edge="1">
          <mxGeometry width="50" height="50" relative="1" as="geometry">
            <mxPoint x="272.5" y="1434" as="sourcePoint" />
            <mxPoint x="312.5" y="1434" as="targetPoint" />
          </mxGeometry>
        </mxCell>
        <mxCell id="WJZfMEvyKtw-Oj8JGxWV-15" value="" style="endArrow=classic;html=1;rounded=0;exitX=1;exitY=0.75;exitDx=0;exitDy=0;entryX=0;entryY=0;entryDx=0;entryDy=0;fontSize=22;" parent="1" source="WJZfMEvyKtw-Oj8JGxWV-9" target="WJZfMEvyKtw-Oj8JGxWV-13" edge="1">
          <mxGeometry width="50" height="50" relative="1" as="geometry">
            <mxPoint x="23.75" y="1607" as="sourcePoint" />
            <mxPoint x="25.25" y="1657" as="targetPoint" />
          </mxGeometry>
        </mxCell>
        <mxCell id="Z81IoRc7hOrovhM4pghT-4" value="" style="shape=image;verticalLabelPosition=bottom;labelBackgroundColor=default;verticalAlign=top;aspect=fixed;imageAspect=0;image=data:image/svg+xml,PHN2ZyB4bWxuczp4bGluaz0iaHR0cDovL3d3dy53My5vcmcvMTk5OS94bGluayIgeG1sbnM9Imh0dHA6Ly93d3cudzMub3JnLzIwMDAvc3ZnIiBoZWlnaHQ9IjIwMCIgd2lkdGg9IjIwMCIgdmVyc2lvbj0iMS4xIiB2aWV3Qm94PSIwIDAgMTAyNCAxMDI0IiBjbGFzcz0iaWNvbiI+PHBhdGggZmlsbD0iIzY2NjY2NiIgZD0iTTk3LjgzIDI0MC4wM3EtNi43My0yLjY5LTkuNDItNS4zOC05LjQxLTkuNDEtMTAuNzUtMjAuMTcgMC0xMy40NSA4LjA3LTIxLjUxIDQwLjM0LTQ0LjM4IDg4Ljc1LTgwLjY5IDU3LjgyLTQwLjM0IDEwMy41NC02MC41MSA1Mi40NC0yNS41NSAxMTQuMy0zNy42NSAxMjEuMDItMjguMjQgMjQwLjcgMCA2My4yMSAxMy40NSAxMTQuMzEgMzcuNjUgNTEuMDkgMjIuODYgMTAyLjE5IDYwLjUxIDQ4LjQxIDM2LjMxIDg4Ljc1IDgwLjY5IDguMDcgOC4wNiA4LjA3IDIxLjUxLTEuMzQgMTAuNzYtMTAuNzUgMjAuMTctMTAuNzYgOC4wNy0yMS41MiA2LjczLTEwLjc2IDAtMjAuMTctOS40Mi00MC4zNC00NC4zNy04MC42OC03My45Ni0zOS0zMi4yNy05MS40NC01Ny44Mi00OC40MS0yMS41MS0xMDIuMi0zMy42MlE1NzIuNTEgNTUuODEgNTEyIDU1LjgxcS01MS4xIDAtMTA3LjU4IDEwLjc1LTUyLjQ0IDEyLjExLTEwMi4yIDM0Ljk3LTQ0LjM3IDE4LjgyLTkyLjc4IDU2LjQ3LTQ3LjA3IDM3LjY2LTc5LjM0IDczLjk2LTEuMzQgMS4zNS0xMC43NiA4LjA3SDk3Ljgzek0yMzIuMyAzNTUuNjhxLTUuMzgtMi42OS02LjcyLTQuMDQtMTAuNzYtOC4wNy0xMC43Ni0yMC4xNyAwLTEzLjQ1IDguMDctMjEuNTEgNTIuNDQtNjMuMiAxMjkuMDktOTguMTcgMzMuNjItMTYuMTMgNzcuOTktMjUuNTUgMzcuNjUtOS40MSA4Mi4wMy05LjQxdDgyLjAzIDkuNDFxNDQuMzcgOS40MiA3Ny45OSAyNS41NSAzMi4yNyAxMy40NSA2OS45MyA0MS42OSAzNC45NiAyOC4yNCA2MC41MSA1Ny44MiA2LjcyIDYuNzIgNi43MiAyMS41MiAwIDEwLjc1LTkuNDEgMjAuMTctMTAuNzYgOS40MS0yMS41MiA2LjcyLTEyLjEgMC0yMS41MS05LjQxLTE3LjQ4LTIxLjUyLTUxLjEtNDguNDEtMzAuOTMtMjEuNTItNjAuNTEtMzQuOTYtMzIuMjgtMTQuOC02NS44OS0yMi44NlE1NDYuOTYgMjM2IDUxMiAyMzZxLTM2LjMxIDAtNjkuOTMgOC4wNy0yOC4yMyA1LjM3LTY1Ljg5IDIxLjUxLTI1LjU1IDEyLjEtNTcuODIgMzQuOTYtMzMuNjIgMjYuOS01MS4xIDQ4LjQxLTIuNjkgMi42OS0xMC43NiA4LjA3aC0xMi4xbC0xMi4xLTEuMzR6IG00MTQuMTcgMTE4LjMzaC0xMi4xcS04LjA3LTUuMzgtMTAuNzYtOC4wNy0yMS41MS0yNS41NS00OS43NS0zNy42NS02MS44Ni0yOS41OC0xMjMuNzIgMC0yNS41NSAxMC43Ni01MS4xIDM3LjY1LTYuNzIgMTAuNzYtMjAuMTcgMTAuNzYtMTMuNDQgMC0yMS41MS04LjA3LTkuNDItNi43Mi05LjQyLTIwLjE3LTIuNjgtMTIuMSA2LjczLTIxLjUxIDI4LjI0LTMzLjYyIDcxLjI3LTUyLjQ1IDg0LjcyLTQwLjM0IDE3Mi4xMiAwIDQzLjAzIDE4LjgzIDY5LjkzIDUyLjQ1IDguMDcgOC4wNyA4LjA3IDIxLjUxLTIuNjkgMTQuNzktMTAuNzYgMjAuMTctMS4zNSAxLjM1LTkuNDIgNS4zOC0yLjY4IDEuMzUtOS40MSAxLjM1di0xLjM1ek02MjIuMjcgMTAyNEg0MDEuNzNxLTQxLjY4IDAtNzEuOTQtMzAuMjUtMzAuMjUtMzAuMjUtMzAuMjUtNzEuOTVWNzAxLjI3cTAtNDEuNjkgMzAuMjUtNzEuOTR0NzEuOTQtMzAuMjVoMjIwLjU0cTQxLjY4IDAgNzEuOTQgMzAuMjUgMzAuMjUgMzAuMjUgMzAuMjUgNzEuOTRWOTIxLjhxMCA0MS42OS0zMC4yNSA3MS45NS0zMC4yNSAzMC4yNS03MS45NCAzMC4yNXpNNDAxLjczIDY1OC4yNHEtMTcuNDggMC0zMC4yNSAxMi43Ny0xMi43OCAxMi43Ny0xMi43OCAzMC4yNXYyMjAuNTNxMCAxNy40OCAxMi43OCAzMC4yNiAxMi43NyAxMi43NyAzMC4yNSAxMi43N2gyMjAuNTRxMTcuNDggMCAzMC4yNS0xMi43NyAxMi43Ny0xMi43OCAxMi43Ny0zMC4yNlY3MDEuMjZxMC0xNy40OC0xMi43Ny0zMC4yNXQtMzAuMjUtMTIuNzdINDAxLjczek01MTIgOTA5LjdxLTQxLjY5IDEuMzQtNzAuNi0yNy41Ny0yOC45MS0yOC45MS0yOC45MS03MC41OSAwLTQwLjM1IDI4LjkxLTY5LjI2IDI4LjkxLTI4LjkxIDY5LjI2LTI4LjkxIDQxLjY4LTEuMzQgNzAuNTkgMjcuNTcgMjguOTEgMjguOTEgMjguOTEgNzAuNiAwIDQwLjM0LTI4LjI0IDY5LjI1UTU1My42OSA5MDkuNyA1MTIgOTA5Ljd6IG0yNy41Ny0xMjUuNzNxLTExLjQzLTExLjQzLTI3LjU3LTExLjQzdC0yNy41NyAxMS40M1E0NzMgNzk1LjQgNDczIDgxMS41M3QxMS40MyAyNy41NnExMS40MyAxMS40MyAyNy41NyAxMS40M3QyNy41Ny0xMS40M1E1NTEgODI3LjY2IDU1MSA4MTEuNTN0LTExLjQzLTI3LjU2eiIvPjwvc3ZnPg==;fontSize=22;" parent="1" vertex="1">
          <mxGeometry x="140" y="915.87" width="28" height="28" as="geometry" />
        </mxCell>
        <mxCell id="Z81IoRc7hOrovhM4pghT-7" value="" style="shape=image;verticalLabelPosition=bottom;labelBackgroundColor=default;verticalAlign=top;aspect=fixed;imageAspect=0;image=data:image/svg+xml,PHN2ZyB4bWxuczp4bGluaz0iaHR0cDovL3d3dy53My5vcmcvMTk5OS94bGluayIgeG1sbnM9Imh0dHA6Ly93d3cudzMub3JnLzIwMDAvc3ZnIiBoZWlnaHQ9IjIwMCIgd2lkdGg9IjIwMCIgdmVyc2lvbj0iMS4xIiB2aWV3Qm94PSIwIDAgMTAyNCAxMDI0IiBjbGFzcz0iaWNvbiI+PHBhdGggZmlsbD0iIzQyNDI0MiIgZD0iTTM0MC42NDYyNDcgODA5LjE3MDI5OWExMzguMjU4ODI3IDEzOC4yNTg4MjcgMCAxIDEtMTE0LjQyODk5LTExNC40Mjg5OWMxNC44NjE0NjUtMTUuOTQ4NTQgMjguMzkyNjkzLTMxLjM2Nzg0NyA0MC40MDc3MzctNDYuMDU3NjY4YTE5My4wOTg5MjEgMTkzLjA5ODkyMSAwIDAgMC0xOTguODIwMzcgNDYuMDg2Mjc1Yy03NS4yMDg0NTQgNzUuMjA4NDU0LTc1LjIwODQ1NCAxOTcuNTkwMjU4IDAgMjcyLjgxMzAxNnMxOTcuNjA0NTYyIDc1LjIyMjc1NyAyNzIuODI3MzE5IDBhMTkzLjA5ODkyMSAxOTMuMDk4OTIxIDAgMCAwIDQ2LjEwMDU3OS0xOTguNzQ4ODUyYy0xNC43MTg0MjkgMTEuOTg2NDM3LTMwLjE2NjM0MiAyNS40ODkwNTgtNDYuMDg2Mjc1IDQwLjMzNjIxOXpNNzY0LjgwNTkwNSA2NDEuNjg5MTY5Qzc3Ni42MjA2OTkgNjU2LjUzNjMzIDc4OS45NjU5OCA2NzIuMDEyODUxIDgwNC42MTI4OSA2ODguMDA0MzAyQTEzOC4yNzMxMzEgMTM4LjI3MzEzMSAwIDEgMSA2ODkuODQwNjEzIDgwMi44NDgwOTdjLTE1Ljk5MTQ1MS0xNC42MzI2MDctMzEuNDY3OTcyLTI3Ljk2MzU4NC00Ni4zMjk0MzctMzkuNzY0MDc0QTE5My4wOTg5MjEgMTkzLjA5ODkyMSAwIDAgMCA2ODkuODQwNjEzIDk2MC44ODg4MzZjNzUuMjIyNzU3IDc1LjIyMjc1NyAxOTcuNjE4ODY2IDc1LjIyMjc1NyAyNzIuODI3MzIgMHM3NS4yMjI3NTctMTk3LjYwNDU2MiAwLTI3Mi44MjczMTlhMTkzLjA5ODkyMSAxOTMuMDk4OTIxIDAgMCAwLTE5Ny44NjIwMjgtNDYuMzcyMzQ4ek02OTIuODE1NzY3IDIyNy44NTY3MjZhMTM4LjI3MzEzMSAxMzguMjczMTMxIDAgMSAxIDExNC43MDA3NTkgMTE0LjY3MjE1MmMtMTUuMjQ3NjYzIDE2LjUyMDY4NS0yOC41MzU3MjkgMzEuOTI1Njg4LTQwLjA1MDE0NyA0Ni4yMjkzMTJhMTkzLjA5ODkyMSAxOTMuMDk4OTIxIDAgMCAwIDE5OC4yMzM5MjItNDYuMjcyMjIzYzc1LjIyMjc1Ny03NS4yMjI3NTcgNzUuMjIyNzU3LTE5Ny42MDQ1NjIgMC0yNzIuODI3MzE5cy0xOTcuNjE4ODY2LTc1LjIyMjc1Ny0yNzIuODI3MzE5IDBhMTkzLjA5ODkyMSAxOTMuMDk4OTIxIDAgMCAwLTQ2LjI0MzYxNiAxOTguMzM0MDQ3YzEzLjk0NjAzMy0xMS4yNTY5NTIgMjkuMzIyNDI5LTI0LjUzMDcxNSA0Ni4xODY0MDEtNDAuMTM1OTY5ek0yNTguMjg1OTgxIDM3NC45NDA4ODljLTEyLjQ0NDE1My0xNC43NzU2NDMtMjYuMjA0MjM5LTMwLjAzNzYxLTQxLjEyMjkxOC00NS43NzE1OTZhMTM4LjI1ODgyNyAxMzguMjU4ODI3IDAgMSAxIDExMy44MjgyMzgtMTEzLjc4NTMyN2MxNS42NDgxNjQgMTQuOTA0Mzc2IDMwLjk5NTk1MyAyOC42MDcyNDcgNDUuNzcxNTk2IDQxLjEyMjkxOWExOTMuMDk4OTIxIDE5My4wOTg5MjEgMCAwIDAtNDUuNjg1Nzc1LTIwMC4wOTMzOTNDMjU1Ljg1NDM2NS0xOC44MDkyNjUgMTMzLjQyOTY1LTE4LjgwOTI2NSA1OC4yNDk4MDMgNTYuNDEzNDkycy03NS4yMjI3NTcgMTk3LjYwNDU2MiAwIDI3Mi44MjczMTlhMTkzLjE4NDc0MiAxOTMuMTg0NzQyIDAgMCAwIDIwMC4wMzYxNzggNDUuNzAwMDc4ek01MTguMzQwMTY1IDQ2MC4xNzYxODNhNTYuMzI3NjcgNTYuMzI3NjcgMCAxIDAgMzkuOTA3MTEgMTYuNDkyMDc4IDU2LjAxMjk5MSA1Ni4wMTI5OTEgMCAwIDAtMzkuOTA3MTEtMTYuNDkyMDc4eiIvPjxwYXRoIGZpbGw9IiM0MjQyNDIiIGQ9Ik03ODcuOTQ5MTY5IDg0NS4zNDQxNjNjMy4yMDQwMTIgMy40MTg1NjYgMTEuMDU2NzAxIDEyLjMxNTQyIDEyLjcwMTYxNyAxMy45NDYwMzRsMC44MTUzMDcgMC43ODY2OTlhOC4wMTAwMjkgOC4wMTAwMjkgMCAwIDAgMS40MzAzNjIgMS4zMDE2M2MxOS4xOTU0NjMgMTcuMjY0NDc0IDQ2LjgxNTc2MSAxOC41OTQ3MTEgNjIuOTM1OTQ1IDIuNDE3MzEyIDE1LjEzMzIzNC0xNS4xMzMyMzQgMTQuOTQ3Mjg3LTQwLjM5MzQzMyAwLjYxNTA1Ni01OS4zMTcxMjhhMTY5Ljk5ODU2OCAxNjkuOTk4NTY4IDAgMCAwLTEyLjI0MzkwMi0xMi4xNzIzODNjLTEuNTg3NzAyLTEuMzQ0NTQxLTIuODYwNzI1LTIuNTE3NDM4LTMuNDc1NzgxLTMuMDAzNzYxLTQ0LjEyNjY3OS00MC44Nzk3NTctMTg4LjEzNTU2My0xODAuNzI2Mjg2LTE4NS4zMDM0NDUtMjYyLjY1NzQ0MyAwLjExNDQyOS0zLjQxODU2NiAwLTE3Ljc3OTQwNCAwLTIxLjkyNzQ1NS0wLjQwMDUwMS04Mi4yMDI5MjYgMTQxLjYwNTg3NS0yMjAuMDc1NTU1IDE4NS4zNDYzNTYtMjYwLjYxMjAyNSAwLjU0MzUzOC0wLjQ4NjMyMyAxLjg4ODA3OC0xLjY1OTIyIDMuNDc1NzgxLTMuMDE4MDY1YTE2Ny4wNTIwMjIgMTY3LjA1MjAyMiAwIDAgMCAxMi4yNDM5MDItMTIuMTU4MDhjMTQuMzAzNjI0LTE4LjkyMzY5NCAxNC41MTgxNzgtNDQuMTgzODk0LTAuNjE1MDU2LTU5LjMxNzEyOC0xNi4xMjAxODQtMTYuMTIwMTg0LTQzLjc0MDQ4MS0xNC44NDcxNjEtNjIuOTM1OTQ1IDIuNDE3MzEzYTguMDEwMDI5IDguMDEwMDI5IDAgMCAwLTEuNDMwMzYyIDEuMzAxNjNjLTAuMjcxNzY5IDAuMjcxNzY5LTAuNTQzNTM4IDAuNTE0OTMtMC44MTUzMDcgMC43NzIzOTUtMS42NDQ5MTcgMS42NDQ5MTctOS40OTc2MDYgMTAuNTQxNzcxLTEyLjcwMTYxOCAxMy45NzQ2NDEtNDMuMDY4MjExIDQ2LjEyOTE4Ny0xNzAuNTk5MzIgMTc1LjUzNDA3MS0yNTEuMjI4ODQ3IDE4MS42NTYwMjEtNi4zNTA4MDkgMC40ODYzMjMtMjguMDYzNzEgMC4zODYxOTgtMzMuMzcwMzU0IDAuMTcxNjQ0LTgyLjU0NjIxMy0zLjI0NjkyMy0yMTcuNDE1MDgxLTE0Mi4xMDY1MDItMjU3LjM1MDc5OS0xODUuMjg5MTQyLTAuNTAwNjI3LTAuNTQzNTM4LTEuNjU5MjItMS44ODgwNzgtMy4wMTgwNjQtMy40NzU3ODFhMTY0LjI2MjgxNSAxNjQuMjYyODE1IDAgMCAwLTEyLjE1ODA4LTEyLjI0MzkwMmMtMTguOTIzNjk0LTE0LjMwMzYyNC00NC4xODM4OTQtMTQuNTE4MTc4LTU5LjMxNzEyOCAwLjYwMDc1Mi0xNi4xMjAxODQgMTYuMTM0NDg4LTE0Ljg2MTQ2NSA0My43NTQ3ODUgMi40MTczMTIgNjIuOTM1OTQ1YTguNjgyMyA4LjY4MjMgMCAwIDAgMS4zMDE2MyAxLjQzMDM2MmwwLjc3MjM5NiAwLjgwMTAwM2MxLjY0NDkxNyAxLjY1OTIyIDEwLjU0MTc3MSA5LjQ5NzYwNiAxMy45NjAzMzYgMTIuNzAxNjE4QzIzNC44OTk1NTYgMjg5LjM2MjMwOCAzNTguODI2MTUzIDQxMS40NDM3MzcgMzcwLjg2OTgwNCA0OTIuMjU5MjExYzEuMzAxNjMgOC42OTY2MDMgMS4yMTU4MDggNDQuMjEyNTAxLTEuMTE1NjgzIDU1LjIyNjI5Mi0xNy4xNjQzNDggODAuNzI5NjUyLTEzNS45OTg4NTUgMTk3LjczMzI5NS0xNzkuODEwODU0IDIzOC42MjczNTUtMy40MTg1NjYgMy4yMTgzMTUtMTIuMzE1NDIgMTEuMDU2NzAxLTEzLjk2MDMzNyAxMi43MDE2MTdsLTAuNzcyMzk1IDAuODE1MzA3YTguMDEwMDI5IDguMDEwMDI5IDAgMCAwLTEuMzAxNjMgMS40MzAzNjJjLTE3LjI3ODc3NyAxOS4xOTU0NjMtMTguNTk0NzExIDQ2LjgxNTc2MS0yLjQxNzMxMyA2Mi45MzU5NDUgMTUuMTMzMjM0IDE1LjEzMzIzNCA0MC4zOTM0MzMgMTQuOTYxNTkgNTkuMzE3MTI4IDAuNjE1MDU2YTE2Ny4wNTIwMjIgMTY3LjA1MjAyMiAwIDAgMCAxMi4xNTgwOC0xMi4yNDM5MDJjMS4zNTg4NDQtMS41ODc3MDIgMi41MTc0MzgtMi44NjA3MjUgMy4wMzIzNjgtMy40NzU3ODFDMjg1LjA0ODA2MSA4MDYuNzI0Mzc5IDQxNC40NjcyNDkgNjczLjM0MzA4OCA0OTcuMzg1MzU2IDY2NC4wMzE0MjljNy40ODA3OTUtMC44NDM5MTQgMzMuOTU2ODAzLTAuODE1MzA3IDQwLjg2NTQ1My0wLjE1NzM0QzYxOC45NjYxNTggNjcxLjQ4MzYxNyA3NDUuMTUyNzI2IDc5OS41NzI1NjcgNzg3Ljk0OTE2OSA4NDUuMzQ0MTYzek01ODAuMjQ2MjQ4IDU3OC40MDk5MzdhODcuNTUyNDgxIDg3LjU1MjQ4MSAwIDEgMSAwLTEyMy44MTIxNjcgODYuOTgwMzM2IDg2Ljk4MDMzNiAwIDAgMSAwIDEyMy44MTIxNjd6Ii8+PC9zdmc+;fontSize=22;" parent="1" vertex="1">
          <mxGeometry x="122" y="950.37" width="28" height="28" as="geometry" />
        </mxCell>
        <mxCell id="WJZfMEvyKtw-Oj8JGxWV-36" value="$$s_t$$" style="rounded=1;whiteSpace=wrap;html=1;fontSize=22;strokeColor=none;fillColor=none;" parent="1" vertex="1">
          <mxGeometry x="483" y="1010.87" width="40" height="40" as="geometry" />
        </mxCell>
        <mxCell id="WJZfMEvyKtw-Oj8JGxWV-72" value="" style="endArrow=classic;html=1;rounded=0;exitX=1;exitY=0.5;exitDx=0;exitDy=0;entryX=0;entryY=0.5;entryDx=0;entryDy=0;fontSize=22;" parent="1" source="WJZfMEvyKtw-Oj8JGxWV-9" target="WJZfMEvyKtw-Oj8JGxWV-11" edge="1">
          <mxGeometry width="50" height="50" relative="1" as="geometry">
            <mxPoint x="281.5" y="1417" as="sourcePoint" />
            <mxPoint x="322.5" y="1417" as="targetPoint" />
          </mxGeometry>
        </mxCell>
        <mxCell id="8oLiAesK85d1lCOAaYAn-26" value="" style="group;fontSize=22;" parent="1" vertex="1" connectable="0">
          <mxGeometry x="287" y="1366.5" width="90" height="50" as="geometry" />
        </mxCell>
        <mxCell id="WJZfMEvyKtw-Oj8JGxWV-64" value="" style="ellipse;whiteSpace=wrap;html=1;aspect=fixed;fillColor=#d80073;fontColor=#ffffff;strokeColor=#A50040;fontSize=22;" parent="8oLiAesK85d1lCOAaYAn-26" vertex="1">
          <mxGeometry y="40" width="10" height="10" as="geometry" />
        </mxCell>
        <mxCell id="WJZfMEvyKtw-Oj8JGxWV-66" value="" style="endArrow=none;html=1;rounded=0;exitX=0.5;exitY=1;exitDx=0;exitDy=0;entryX=0.5;entryY=0;entryDx=0;entryDy=0;fontSize=22;" parent="8oLiAesK85d1lCOAaYAn-26" source="WJZfMEvyKtw-Oj8JGxWV-54" target="WJZfMEvyKtw-Oj8JGxWV-64" edge="1">
          <mxGeometry width="50" height="50" relative="1" as="geometry">
            <mxPoint x="29" y="29" as="sourcePoint" />
            <mxPoint x="54" y="51" as="targetPoint" />
          </mxGeometry>
        </mxCell>
        <mxCell id="WJZfMEvyKtw-Oj8JGxWV-67" value="" style="endArrow=none;html=1;rounded=0;exitX=0;exitY=1;exitDx=0;exitDy=0;entryX=1;entryY=0;entryDx=0;entryDy=0;fontSize=22;" parent="8oLiAesK85d1lCOAaYAn-26" source="WJZfMEvyKtw-Oj8JGxWV-55" target="WJZfMEvyKtw-Oj8JGxWV-64" edge="1">
          <mxGeometry width="50" height="50" relative="1" as="geometry">
            <mxPoint x="25" y="30" as="sourcePoint" />
            <mxPoint x="25" y="60" as="targetPoint" />
          </mxGeometry>
        </mxCell>
        <mxCell id="WJZfMEvyKtw-Oj8JGxWV-54" value="" style="ellipse;whiteSpace=wrap;html=1;aspect=fixed;fillColor=#0050ef;fontColor=#ffffff;strokeColor=#001DBC;fontSize=22;" parent="8oLiAesK85d1lCOAaYAn-26" vertex="1">
          <mxGeometry x="10" y="10" width="10" height="10" as="geometry" />
        </mxCell>
        <mxCell id="WJZfMEvyKtw-Oj8JGxWV-56" value="" style="ellipse;whiteSpace=wrap;html=1;aspect=fixed;fillColor=#980152;fontColor=#ffffff;strokeColor=#A50040;fontSize=22;" parent="8oLiAesK85d1lCOAaYAn-26" vertex="1">
          <mxGeometry x="20" y="36" width="10" height="10" as="geometry" />
        </mxCell>
        <mxCell id="WJZfMEvyKtw-Oj8JGxWV-57" value="" style="ellipse;whiteSpace=wrap;html=1;aspect=fixed;fillColor=#E481B6;fontColor=#ffffff;strokeColor=#A50040;fontSize=22;" parent="8oLiAesK85d1lCOAaYAn-26" vertex="1">
          <mxGeometry x="59" y="18" width="10" height="10" as="geometry" />
        </mxCell>
        <mxCell id="WJZfMEvyKtw-Oj8JGxWV-59" value="" style="endArrow=none;html=1;rounded=0;exitX=0.5;exitY=1;exitDx=0;exitDy=0;entryX=0;entryY=0;entryDx=0;entryDy=0;fontSize=22;" parent="8oLiAesK85d1lCOAaYAn-26" source="WJZfMEvyKtw-Oj8JGxWV-54" target="WJZfMEvyKtw-Oj8JGxWV-56" edge="1">
          <mxGeometry width="50" height="50" relative="1" as="geometry">
            <mxPoint x="47" y="33" as="sourcePoint" />
            <mxPoint x="83" y="7" as="targetPoint" />
          </mxGeometry>
        </mxCell>
        <mxCell id="WJZfMEvyKtw-Oj8JGxWV-63" value="" style="endArrow=none;html=1;rounded=0;exitX=1;exitY=0.5;exitDx=0;exitDy=0;entryX=0;entryY=0.5;entryDx=0;entryDy=0;fontSize=22;" parent="8oLiAesK85d1lCOAaYAn-26" source="WJZfMEvyKtw-Oj8JGxWV-54" target="WJZfMEvyKtw-Oj8JGxWV-57" edge="1">
          <mxGeometry width="50" height="50" relative="1" as="geometry">
            <mxPoint x="87" y="73" as="sourcePoint" />
            <mxPoint x="150" y="60" as="targetPoint" />
          </mxGeometry>
        </mxCell>
        <mxCell id="WJZfMEvyKtw-Oj8JGxWV-55" value="" style="ellipse;whiteSpace=wrap;html=1;aspect=fixed;fillColor=#6896F3;fontColor=#ffffff;strokeColor=#001DBC;fontSize=22;" parent="8oLiAesK85d1lCOAaYAn-26" vertex="1">
          <mxGeometry x="45" width="10" height="10" as="geometry" />
        </mxCell>
        <mxCell id="WJZfMEvyKtw-Oj8JGxWV-61" value="" style="endArrow=none;html=1;rounded=0;exitX=1;exitY=1;exitDx=0;exitDy=0;entryX=0;entryY=0;entryDx=0;entryDy=0;fontSize=22;" parent="8oLiAesK85d1lCOAaYAn-26" source="WJZfMEvyKtw-Oj8JGxWV-55" target="WJZfMEvyKtw-Oj8JGxWV-57" edge="1">
          <mxGeometry width="50" height="50" relative="1" as="geometry">
            <mxPoint x="67" y="53" as="sourcePoint" />
            <mxPoint x="103" y="27" as="targetPoint" />
          </mxGeometry>
        </mxCell>
        <mxCell id="WJZfMEvyKtw-Oj8JGxWV-62" value="" style="endArrow=none;html=1;rounded=0;exitX=0;exitY=1;exitDx=0;exitDy=0;entryX=0.5;entryY=0;entryDx=0;entryDy=0;fontSize=22;" parent="8oLiAesK85d1lCOAaYAn-26" source="WJZfMEvyKtw-Oj8JGxWV-55" target="WJZfMEvyKtw-Oj8JGxWV-56" edge="1">
          <mxGeometry width="50" height="50" relative="1" as="geometry">
            <mxPoint x="77" y="63" as="sourcePoint" />
            <mxPoint x="113" y="37" as="targetPoint" />
          </mxGeometry>
        </mxCell>
        <mxCell id="8oLiAesK85d1lCOAaYAn-81" value="" style="group;fontSize=22;" parent="1" vertex="1" connectable="0">
          <mxGeometry x="286" y="1201.5" width="70" height="54" as="geometry" />
        </mxCell>
        <mxCell id="WJZfMEvyKtw-Oj8JGxWV-41" value="" style="ellipse;whiteSpace=wrap;html=1;aspect=fixed;fillColor=#6896F3;fontColor=#ffffff;strokeColor=#001DBC;container=0;fontSize=22;" parent="8oLiAesK85d1lCOAaYAn-81" vertex="1">
          <mxGeometry x="13" y="6" width="10" height="10" as="geometry" />
        </mxCell>
        <mxCell id="WJZfMEvyKtw-Oj8JGxWV-45" value="" style="endArrow=none;html=1;rounded=0;exitX=1;exitY=0;exitDx=0;exitDy=0;entryX=0;entryY=1;entryDx=0;entryDy=0;fontSize=22;" parent="8oLiAesK85d1lCOAaYAn-81" source="WJZfMEvyKtw-Oj8JGxWV-40" target="WJZfMEvyKtw-Oj8JGxWV-41" edge="1">
          <mxGeometry width="50" height="50" relative="1" as="geometry">
            <mxPoint x="20" y="30" as="sourcePoint" />
            <mxPoint x="70" y="-20" as="targetPoint" />
          </mxGeometry>
        </mxCell>
        <mxCell id="WJZfMEvyKtw-Oj8JGxWV-48" value="" style="endArrow=none;html=1;rounded=0;exitX=1;exitY=0.5;exitDx=0;exitDy=0;entryX=0;entryY=0;entryDx=0;entryDy=0;fontSize=22;" parent="8oLiAesK85d1lCOAaYAn-81" source="WJZfMEvyKtw-Oj8JGxWV-41" target="WJZfMEvyKtw-Oj8JGxWV-43" edge="1">
          <mxGeometry width="50" height="50" relative="1" as="geometry">
            <mxPoint x="47" y="63" as="sourcePoint" />
            <mxPoint x="83" y="37" as="targetPoint" />
          </mxGeometry>
        </mxCell>
        <mxCell id="WJZfMEvyKtw-Oj8JGxWV-49" value="" style="endArrow=none;html=1;rounded=0;exitX=0.5;exitY=1;exitDx=0;exitDy=0;entryX=0.5;entryY=0;entryDx=0;entryDy=0;fontSize=22;" parent="8oLiAesK85d1lCOAaYAn-81" source="WJZfMEvyKtw-Oj8JGxWV-41" target="WJZfMEvyKtw-Oj8JGxWV-42" edge="1">
          <mxGeometry width="50" height="50" relative="1" as="geometry">
            <mxPoint x="57" y="73" as="sourcePoint" />
            <mxPoint x="93" y="47" as="targetPoint" />
          </mxGeometry>
        </mxCell>
        <mxCell id="WJZfMEvyKtw-Oj8JGxWV-40" value="" style="ellipse;whiteSpace=wrap;html=1;aspect=fixed;fillColor=#1662f8;fontColor=#ffffff;strokeColor=#001DBC;container=0;fontSize=22;" parent="8oLiAesK85d1lCOAaYAn-81" vertex="1">
          <mxGeometry y="30" width="10" height="10" as="geometry" />
        </mxCell>
        <mxCell id="WJZfMEvyKtw-Oj8JGxWV-42" value="" style="ellipse;whiteSpace=wrap;html=1;aspect=fixed;fillColor=#0447cd;fontColor=#ffffff;strokeColor=#001DBC;container=0;fontSize=22;" parent="8oLiAesK85d1lCOAaYAn-81" vertex="1">
          <mxGeometry x="10" y="44" width="10" height="10" as="geometry" />
        </mxCell>
        <mxCell id="WJZfMEvyKtw-Oj8JGxWV-43" value="" style="ellipse;whiteSpace=wrap;html=1;aspect=fixed;fillColor=#042C7C;fontColor=#ffffff;strokeColor=#001DBC;container=0;fontSize=22;" parent="8oLiAesK85d1lCOAaYAn-81" vertex="1">
          <mxGeometry x="45" y="30" width="10" height="10" as="geometry" />
        </mxCell>
        <mxCell id="WJZfMEvyKtw-Oj8JGxWV-46" value="" style="endArrow=none;html=1;rounded=0;exitX=1;exitY=1;exitDx=0;exitDy=0;entryX=0;entryY=0;entryDx=0;entryDy=0;fontSize=22;" parent="8oLiAesK85d1lCOAaYAn-81" source="WJZfMEvyKtw-Oj8JGxWV-40" target="WJZfMEvyKtw-Oj8JGxWV-42" edge="1">
          <mxGeometry width="50" height="50" relative="1" as="geometry">
            <mxPoint x="27" y="43" as="sourcePoint" />
            <mxPoint x="63" y="17" as="targetPoint" />
          </mxGeometry>
        </mxCell>
        <mxCell id="WJZfMEvyKtw-Oj8JGxWV-47" value="" style="endArrow=none;html=1;rounded=0;exitX=1;exitY=0;exitDx=0;exitDy=0;entryX=0;entryY=1;entryDx=0;entryDy=0;fontSize=22;" parent="8oLiAesK85d1lCOAaYAn-81" source="WJZfMEvyKtw-Oj8JGxWV-42" target="WJZfMEvyKtw-Oj8JGxWV-43" edge="1">
          <mxGeometry width="50" height="50" relative="1" as="geometry">
            <mxPoint x="37" y="53" as="sourcePoint" />
            <mxPoint x="73" y="27" as="targetPoint" />
          </mxGeometry>
        </mxCell>
        <mxCell id="WJZfMEvyKtw-Oj8JGxWV-50" value="" style="endArrow=none;html=1;rounded=0;exitX=1;exitY=0.5;exitDx=0;exitDy=0;entryX=0;entryY=0.5;entryDx=0;entryDy=0;fontSize=22;" parent="8oLiAesK85d1lCOAaYAn-81" source="WJZfMEvyKtw-Oj8JGxWV-40" target="WJZfMEvyKtw-Oj8JGxWV-43" edge="1">
          <mxGeometry width="50" height="50" relative="1" as="geometry">
            <mxPoint x="67" y="83" as="sourcePoint" />
            <mxPoint x="130" y="70" as="targetPoint" />
          </mxGeometry>
        </mxCell>
        <mxCell id="8oLiAesK85d1lCOAaYAn-109" value="Attention-based Convolutional Network" style="rounded=1;whiteSpace=wrap;html=1;fontSize=28;strokeColor=none;fillColor=none;fontFamily=Garamond;fontStyle=1" parent="1" vertex="1">
          <mxGeometry x="300" y="1510" width="232" height="20" as="geometry" />
        </mxCell>
        <mxCell id="8oLiAesK85d1lCOAaYAn-110" value="UAV" style="rounded=1;whiteSpace=wrap;html=1;fontSize=28;strokeColor=none;fillColor=none;fontFamily=Garamond;fontStyle=1" parent="1" vertex="1">
          <mxGeometry x="127" y="1189" width="52" height="20" as="geometry" />
        </mxCell>
        <mxCell id="8oLiAesK85d1lCOAaYAn-111" value="Sensor" style="rounded=1;whiteSpace=wrap;html=1;fontSize=28;strokeColor=none;fillColor=none;fontFamily=Garamond;fontStyle=1" parent="1" vertex="1">
          <mxGeometry x="129.5" y="1342" width="52" height="20" as="geometry" />
        </mxCell>
        <mxCell id="8oLiAesK85d1lCOAaYAn-112" value="$$\mathcal{H}_{t}^{1(-1)}$$" style="rounded=1;whiteSpace=wrap;html=1;fontSize=22;strokeColor=none;fillColor=none;" parent="1" vertex="1">
          <mxGeometry x="475" y="1255" width="89.54" height="40" as="geometry" />
        </mxCell>
        <mxCell id="8oLiAesK85d1lCOAaYAn-113" value="$$\mathcal{H}_{t}^{2(-1)}$$" style="rounded=1;whiteSpace=wrap;html=1;fontSize=22;strokeColor=none;fillColor=none;" parent="1" vertex="1">
          <mxGeometry x="475" y="1414" width="89.54" height="40" as="geometry" />
        </mxCell>
        <mxCell id="8oLiAesK85d1lCOAaYAn-114" value="" style="endArrow=classic;html=1;rounded=0;dashed=1;dashPattern=8 8;entryX=0;entryY=0.5;entryDx=0;entryDy=0;fontSize=22;exitX=1;exitY=0.5;exitDx=0;exitDy=0;" parent="1" source="WJZfMEvyKtw-Oj8JGxWV-11" target="8oLiAesK85d1lCOAaYAn-112" edge="1">
          <mxGeometry width="50" height="50" relative="1" as="geometry">
            <mxPoint x="421" y="1274.76" as="sourcePoint" />
            <mxPoint x="585.54" y="1274.7599999999998" as="targetPoint" />
          </mxGeometry>
        </mxCell>
        <mxCell id="8oLiAesK85d1lCOAaYAn-118" value="" style="endArrow=classic;html=1;rounded=0;dashed=1;dashPattern=8 8;entryX=0;entryY=0.5;entryDx=0;entryDy=0;fontSize=22;exitX=1;exitY=0.5;exitDx=0;exitDy=0;" parent="1" source="WJZfMEvyKtw-Oj8JGxWV-13" target="8oLiAesK85d1lCOAaYAn-113" edge="1">
          <mxGeometry width="50" height="50" relative="1" as="geometry">
            <mxPoint x="421" y="1434" as="sourcePoint" />
            <mxPoint x="592" y="1433.76" as="targetPoint" />
          </mxGeometry>
        </mxCell>
        <mxCell id="8oLiAesK85d1lCOAaYAn-121" value="$$\mathcal{Y}_{t}^{{\mathcal{M}}}$$" style="rounded=1;whiteSpace=wrap;html=1;fontSize=22;strokeColor=none;fillColor=none;" parent="1" vertex="1">
          <mxGeometry x="729" y="1414" width="62" height="40" as="geometry" />
        </mxCell>
        <mxCell id="8oLiAesK85d1lCOAaYAn-122" value="$$\mathcal{Y}_{t}^{{\mathcal{U}}}$$" style="rounded=1;whiteSpace=wrap;html=1;fontSize=22;strokeColor=none;fillColor=none;" parent="1" vertex="1">
          <mxGeometry x="729" y="1255" width="62" height="40" as="geometry" />
        </mxCell>
        <mxCell id="8oLiAesK85d1lCOAaYAn-123" value="" style="endArrow=classic;html=1;rounded=0;entryX=0;entryY=0.75;entryDx=0;entryDy=0;exitX=1;exitY=0.25;exitDx=0;exitDy=0;fontSize=22;dashed=1;dashPattern=8 8;" parent="1" source="8oLiAesK85d1lCOAaYAn-113" target="8oLiAesK85d1lCOAaYAn-136" edge="1">
          <mxGeometry width="50" height="50" relative="1" as="geometry">
            <mxPoint x="689" y="1416" as="sourcePoint" />
            <mxPoint x="577" y="1376" as="targetPoint" />
          </mxGeometry>
        </mxCell>
        <mxCell id="8oLiAesK85d1lCOAaYAn-124" value="" style="endArrow=classic;html=1;rounded=0;exitX=1;exitY=0.5;exitDx=0;exitDy=0;entryX=0;entryY=0.5;entryDx=0;entryDy=0;fontSize=22;" parent="1" source="8oLiAesK85d1lCOAaYAn-112" target="8oLiAesK85d1lCOAaYAn-138" edge="1">
          <mxGeometry width="50" height="50" relative="1" as="geometry">
            <mxPoint x="689" y="1277" as="sourcePoint" />
            <mxPoint x="800" y="1277" as="targetPoint" />
          </mxGeometry>
        </mxCell>
        <mxCell id="8oLiAesK85d1lCOAaYAn-125" value="" style="endArrow=classic;html=1;rounded=0;entryX=0;entryY=0.5;entryDx=0;entryDy=0;exitX=1;exitY=0.5;exitDx=0;exitDy=0;fontSize=22;" parent="1" source="8oLiAesK85d1lCOAaYAn-139" target="8oLiAesK85d1lCOAaYAn-121" edge="1">
          <mxGeometry width="50" height="50" relative="1" as="geometry">
            <mxPoint x="699" y="1434" as="sourcePoint" />
            <mxPoint x="860" y="1447" as="targetPoint" />
          </mxGeometry>
        </mxCell>
        <mxCell id="8oLiAesK85d1lCOAaYAn-127" value="" style="ellipse;whiteSpace=wrap;html=1;aspect=fixed;fillColor=#e298bf;fontColor=#ffffff;strokeColor=#A50040;fontSize=22;" parent="1" vertex="1">
          <mxGeometry x="593.5" y="1392" width="10" height="10" as="geometry" />
        </mxCell>
        <mxCell id="8oLiAesK85d1lCOAaYAn-131" value="" style="ellipse;whiteSpace=wrap;html=1;aspect=fixed;fillColor=#e64c9e;fontColor=#ffffff;strokeColor=#A50040;fontSize=22;" parent="1" vertex="1">
          <mxGeometry x="612.5" y="1393" width="10" height="10" as="geometry" />
        </mxCell>
        <mxCell id="8oLiAesK85d1lCOAaYAn-132" value="" style="ellipse;whiteSpace=wrap;html=1;aspect=fixed;fillColor=#54032e;fontColor=#ffffff;strokeColor=#A50040;fontSize=22;" parent="1" vertex="1">
          <mxGeometry x="630.5" y="1400" width="10" height="10" as="geometry" />
        </mxCell>
        <mxCell id="8oLiAesK85d1lCOAaYAn-133" value="" style="ellipse;whiteSpace=wrap;html=1;aspect=fixed;fillColor=#e878b4;fontColor=#ffffff;strokeColor=#A50040;fontSize=22;" parent="1" vertex="1">
          <mxGeometry x="602.5" y="1403" width="10" height="10" as="geometry" />
        </mxCell>
        <mxCell id="8oLiAesK85d1lCOAaYAn-140" value="" style="endArrow=classic;html=1;rounded=0;entryX=0;entryY=0.5;entryDx=0;entryDy=0;exitX=1;exitY=0.5;exitDx=0;exitDy=0;fontSize=22;dashed=1;dashPattern=8 8;" parent="1" source="8oLiAesK85d1lCOAaYAn-113" target="8oLiAesK85d1lCOAaYAn-139" edge="1">
          <mxGeometry width="50" height="50" relative="1" as="geometry">
            <mxPoint x="648" y="1434" as="sourcePoint" />
            <mxPoint x="678" y="1413" as="targetPoint" />
          </mxGeometry>
        </mxCell>
        <mxCell id="8oLiAesK85d1lCOAaYAn-134" value="" style="ellipse;whiteSpace=wrap;html=1;aspect=fixed;fillColor=#096071;fontColor=#ffffff;strokeColor=#006EAF;container=0;fontSize=22;" parent="1" vertex="1">
          <mxGeometry x="631" y="1323" width="10" height="10" as="geometry" />
        </mxCell>
        <mxCell id="8oLiAesK85d1lCOAaYAn-129" value="" style="ellipse;whiteSpace=wrap;html=1;aspect=fixed;fillColor=#6fbbe2;fontColor=#ffffff;strokeColor=#006EAF;fontSize=22;" parent="1" vertex="1">
          <mxGeometry x="617" y="1318" width="10" height="10" as="geometry" />
        </mxCell>
        <mxCell id="8oLiAesK85d1lCOAaYAn-130" value="" style="ellipse;whiteSpace=wrap;html=1;aspect=fixed;fillColor=#1bbce4;fontColor=#ffffff;strokeColor=#006EAF;fontSize=22;" parent="1" vertex="1">
          <mxGeometry x="596" y="1326" width="10" height="10" as="geometry" />
        </mxCell>
        <mxCell id="8oLiAesK85d1lCOAaYAn-143" value="" style="ellipse;whiteSpace=wrap;html=1;aspect=fixed;fillColor=#4f96f3;fontColor=#ffffff;strokeColor=#006EAF;container=0;fontSize=22;" parent="1" vertex="1">
          <mxGeometry x="629" y="1246" width="10" height="10" as="geometry" />
        </mxCell>
        <mxCell id="8oLiAesK85d1lCOAaYAn-144" value="" style="ellipse;whiteSpace=wrap;html=1;aspect=fixed;fillColor=#abccf7;fontColor=#ffffff;strokeColor=#006EAF;fontSize=22;" parent="1" vertex="1">
          <mxGeometry x="615" y="1240" width="10" height="10" as="geometry" />
        </mxCell>
        <mxCell id="8oLiAesK85d1lCOAaYAn-145" value="" style="ellipse;whiteSpace=wrap;html=1;aspect=fixed;fillColor=#2a5cac;fontColor=#ffffff;strokeColor=#006EAF;fontSize=22;" parent="1" vertex="1">
          <mxGeometry x="594" y="1248" width="10" height="10" as="geometry" />
        </mxCell>
        <mxCell id="8oLiAesK85d1lCOAaYAn-146" value="" style="endArrow=classic;html=1;rounded=0;exitX=1;exitY=0.5;exitDx=0;exitDy=0;entryX=0;entryY=0.5;entryDx=0;entryDy=0;dashed=1;dashPattern=8 8;fontSize=22;" parent="1" source="8oLiAesK85d1lCOAaYAn-138" target="8oLiAesK85d1lCOAaYAn-122" edge="1">
          <mxGeometry width="50" height="50" relative="1" as="geometry">
            <mxPoint x="693" y="1274.77" as="sourcePoint" />
            <mxPoint x="731" y="1274.77" as="targetPoint" />
          </mxGeometry>
        </mxCell>
        <mxCell id="8oLiAesK85d1lCOAaYAn-147" value="" style="endArrow=classic;html=1;rounded=0;entryX=0;entryY=0.75;entryDx=0;entryDy=0;exitX=1;exitY=0.5;exitDx=0;exitDy=0;dashed=1;dashPattern=8 8;fontSize=22;" parent="1" source="8oLiAesK85d1lCOAaYAn-136" target="8oLiAesK85d1lCOAaYAn-122" edge="1">
          <mxGeometry width="50" height="50" relative="1" as="geometry">
            <mxPoint x="694" y="1333" as="sourcePoint" />
            <mxPoint x="741" y="1284.77" as="targetPoint" />
          </mxGeometry>
        </mxCell>
        <mxCell id="7-pGLLORBGx0Y4iLze1Q-2" value="$$ \mathcal{N}_2(\cdot&lt;br style=&quot;font-size: 22px;&quot;&gt;)$$" style="rounded=1;whiteSpace=wrap;html=1;fontSize=22;strokeColor=none;fillColor=none;container=0;" parent="1" vertex="1">
          <mxGeometry x="669" y="1236" width="40" height="40" as="geometry" />
        </mxCell>
        <mxCell id="7-pGLLORBGx0Y4iLze1Q-3" value="$${h}_{t}^{2,1}$$" style="ellipse;whiteSpace=wrap;html=1;aspect=fixed;fillColor=#1bbce4;fontColor=#ffffff;strokeColor=#006EAF;fontSize=20;strokeWidth=2;" parent="1" vertex="1">
          <mxGeometry x="594" y="1188.73" width="40" height="40" as="geometry" />
        </mxCell>
        <mxCell id="7-pGLLORBGx0Y4iLze1Q-4" value="$${h}_{t}^{1,1}$$" style="ellipse;whiteSpace=wrap;html=1;aspect=fixed;fillColor=#2a5cac;fontColor=#ffffff;strokeColor=#006EAF;fontSize=20;strokeWidth=2;" parent="1" vertex="1">
          <mxGeometry x="594" y="1145" width="40" height="40" as="geometry" />
        </mxCell>
        <mxCell id="7-pGLLORBGx0Y4iLze1Q-6" value="" style="endArrow=classic;html=1;rounded=0;exitX=1;exitY=0.5;exitDx=0;exitDy=0;entryX=-0.019;entryY=0.311;entryDx=0;entryDy=0;entryPerimeter=0;strokeWidth=3.5;endSize=0;startSize=3;fontSize=22;" parent="1" source="7-pGLLORBGx0Y4iLze1Q-4" target="7-pGLLORBGx0Y4iLze1Q-7" edge="1">
          <mxGeometry width="50" height="50" relative="1" as="geometry">
            <mxPoint x="662" y="1180" as="sourcePoint" />
            <mxPoint x="657" y="1170" as="targetPoint" />
          </mxGeometry>
        </mxCell>
        <mxCell id="7-pGLLORBGx0Y4iLze1Q-7" value="$$\mathcal{Y}_{t}^{1}$$" style="ellipse;whiteSpace=wrap;html=1;aspect=fixed;fillColor=#186baa;fontColor=#ffffff;strokeColor=#006EAF;fontSize=20;strokeWidth=2;" parent="1" vertex="1">
          <mxGeometry x="644" y="1166.73" width="40" height="40" as="geometry" />
        </mxCell>
        <mxCell id="7-pGLLORBGx0Y4iLze1Q-8" value="" style="endArrow=classic;html=1;rounded=0;exitX=1;exitY=0.5;exitDx=0;exitDy=0;entryX=-0.021;entryY=0.676;entryDx=0;entryDy=0;entryPerimeter=0;endSize=7;fontSize=22;" parent="1" source="7-pGLLORBGx0Y4iLze1Q-3" target="7-pGLLORBGx0Y4iLze1Q-7" edge="1">
          <mxGeometry width="50" height="50" relative="1" as="geometry">
            <mxPoint x="639" y="1175" as="sourcePoint" />
            <mxPoint x="681" y="1188" as="targetPoint" />
          </mxGeometry>
        </mxCell>
        <mxCell id="7-pGLLORBGx0Y4iLze1Q-9" value="$${h}_{t}^{2,2}$$" style="ellipse;whiteSpace=wrap;html=1;aspect=fixed;fillColor=#0588a8;fontColor=#ffffff;strokeColor=#006EAF;fontSize=20;strokeWidth=2;" parent="1" vertex="1">
          <mxGeometry x="685" y="1188.73" width="40" height="40" as="geometry" />
        </mxCell>
        <mxCell id="7-pGLLORBGx0Y4iLze1Q-10" value="$${h}_{t}^{1,2}$$" style="ellipse;whiteSpace=wrap;html=1;aspect=fixed;fillColor=#7da6e8;fontColor=#ffffff;strokeColor=#006EAF;fontSize=20;strokeWidth=2;" parent="1" vertex="1">
          <mxGeometry x="685" y="1145" width="40" height="40" as="geometry" />
        </mxCell>
        <mxCell id="7-pGLLORBGx0Y4iLze1Q-11" value="" style="endArrow=classic;html=1;rounded=0;exitX=1;exitY=0.5;exitDx=0;exitDy=0;entryX=-0.019;entryY=0.311;entryDx=0;entryDy=0;entryPerimeter=0;strokeWidth=0.5;endSize=8;startSize=3;fontSize=22;" parent="1" source="7-pGLLORBGx0Y4iLze1Q-10" target="7-pGLLORBGx0Y4iLze1Q-12" edge="1">
          <mxGeometry width="50" height="50" relative="1" as="geometry">
            <mxPoint x="753" y="1180" as="sourcePoint" />
            <mxPoint x="748" y="1170" as="targetPoint" />
          </mxGeometry>
        </mxCell>
        <mxCell id="7-pGLLORBGx0Y4iLze1Q-12" value="$$\mathcal{Y}_{t}^{2}$$" style="ellipse;whiteSpace=wrap;html=1;aspect=fixed;fillColor=#3aa8df;fontColor=#ffffff;strokeColor=#006EAF;fontSize=20;strokeWidth=2;" parent="1" vertex="1">
          <mxGeometry x="735" y="1166.73" width="40" height="40" as="geometry" />
        </mxCell>
        <mxCell id="7-pGLLORBGx0Y4iLze1Q-13" value="" style="endArrow=classic;html=1;rounded=0;exitX=1;exitY=0.5;exitDx=0;exitDy=0;entryX=-0.021;entryY=0.676;entryDx=0;entryDy=0;entryPerimeter=0;strokeWidth=2;endSize=3;fontSize=22;" parent="1" source="7-pGLLORBGx0Y4iLze1Q-9" target="7-pGLLORBGx0Y4iLze1Q-12" edge="1">
          <mxGeometry width="50" height="50" relative="1" as="geometry">
            <mxPoint x="730" y="1175" as="sourcePoint" />
            <mxPoint x="772" y="1188" as="targetPoint" />
          </mxGeometry>
        </mxCell>
        <mxCell id="7-pGLLORBGx0Y4iLze1Q-16" value="Attention-based Feature Integration" style="rounded=1;whiteSpace=wrap;html=1;fontSize=28;strokeColor=none;fillColor=none;fontFamily=Garamond;fontStyle=1" parent="1" vertex="1">
          <mxGeometry x="586.38" y="1510" width="210.25" height="20" as="geometry" />
        </mxCell>
        <mxCell id="7-pGLLORBGx0Y4iLze1Q-25" value="Feature Embedding" style="rounded=1;whiteSpace=wrap;html=1;fontSize=28;strokeColor=none;fillColor=none;fontFamily=Garamond;fontStyle=1" parent="1" vertex="1">
          <mxGeometry x="121" y="1510" width="122" height="20" as="geometry" />
        </mxCell>
        <mxCell id="7-pGLLORBGx0Y4iLze1Q-29" value="" style="ellipse;whiteSpace=wrap;html=1;aspect=fixed;fillColor=#a51261;fontColor=#ffffff;strokeColor=#A50040;fontSize=22;" parent="1" vertex="1">
          <mxGeometry x="130" y="1369" width="10" height="10" as="geometry" />
        </mxCell>
        <mxCell id="7-pGLLORBGx0Y4iLze1Q-30" value="" style="ellipse;whiteSpace=wrap;html=1;aspect=fixed;fillColor=#E6379A;fontColor=#ffffff;strokeColor=#A50040;fontSize=22;" parent="1" vertex="1">
          <mxGeometry x="149" y="1370" width="10" height="10" as="geometry" />
        </mxCell>
        <mxCell id="7-pGLLORBGx0Y4iLze1Q-31" value="" style="ellipse;whiteSpace=wrap;html=1;aspect=fixed;fillColor=#fb7ec1;fontColor=#ffffff;strokeColor=#A50040;fontSize=22;" parent="1" vertex="1">
          <mxGeometry x="167" y="1377" width="10" height="10" as="geometry" />
        </mxCell>
        <mxCell id="7-pGLLORBGx0Y4iLze1Q-32" value="" style="ellipse;whiteSpace=wrap;html=1;aspect=fixed;fillColor=#BD6292;fontColor=#ffffff;strokeColor=#A50040;fontSize=22;" parent="1" vertex="1">
          <mxGeometry x="139" y="1380" width="10" height="10" as="geometry" />
        </mxCell>
        <mxCell id="7-pGLLORBGx0Y4iLze1Q-35" value="" style="ellipse;whiteSpace=wrap;html=1;aspect=fixed;fillColor=#266dc9;fontColor=#ffffff;strokeColor=#006EAF;container=0;fontSize=22;" parent="1" vertex="1">
          <mxGeometry x="771" y="1243.5" width="10" height="10" as="geometry" />
        </mxCell>
        <mxCell id="7-pGLLORBGx0Y4iLze1Q-36" value="" style="ellipse;whiteSpace=wrap;html=1;aspect=fixed;fillColor=#4c8fe6;fontColor=#ffffff;strokeColor=#006EAF;fontSize=22;" parent="1" vertex="1">
          <mxGeometry x="757" y="1237.5" width="10" height="10" as="geometry" />
        </mxCell>
        <mxCell id="7-pGLLORBGx0Y4iLze1Q-37" value="" style="ellipse;whiteSpace=wrap;html=1;aspect=fixed;fillColor=#174ea6;fontColor=#ffffff;strokeColor=#006EAF;fontSize=22;" parent="1" vertex="1">
          <mxGeometry x="736" y="1245.5" width="10" height="10" as="geometry" />
        </mxCell>
        <mxCell id="7-pGLLORBGx0Y4iLze1Q-42" value="" style="ellipse;whiteSpace=wrap;html=1;aspect=fixed;fillColor=#e298bf;fontColor=#ffffff;strokeColor=#A50040;fontSize=22;" parent="1" vertex="1">
          <mxGeometry x="733" y="1391.5" width="10" height="10" as="geometry" />
        </mxCell>
        <mxCell id="7-pGLLORBGx0Y4iLze1Q-43" value="" style="ellipse;whiteSpace=wrap;html=1;aspect=fixed;fillColor=#e64c9e;fontColor=#ffffff;strokeColor=#A50040;fontSize=22;" parent="1" vertex="1">
          <mxGeometry x="752" y="1392.5" width="10" height="10" as="geometry" />
        </mxCell>
        <mxCell id="7-pGLLORBGx0Y4iLze1Q-44" value="" style="ellipse;whiteSpace=wrap;html=1;aspect=fixed;fillColor=#54032e;fontColor=#ffffff;strokeColor=#A50040;fontSize=22;" parent="1" vertex="1">
          <mxGeometry x="770" y="1399.5" width="10" height="10" as="geometry" />
        </mxCell>
        <mxCell id="7-pGLLORBGx0Y4iLze1Q-45" value="" style="ellipse;whiteSpace=wrap;html=1;aspect=fixed;fillColor=#e878b4;fontColor=#ffffff;strokeColor=#A50040;fontSize=22;" parent="1" vertex="1">
          <mxGeometry x="742" y="1402.5" width="10" height="10" as="geometry" />
        </mxCell>
        <mxCell id="oHYq3X2Aw_v4aejKyTAJ-1" value="" style="shape=image;verticalLabelPosition=bottom;labelBackgroundColor=default;verticalAlign=top;aspect=fixed;imageAspect=0;image=data:image/svg+xml,PHN2ZyB4bWxuczp4bGluaz0iaHR0cDovL3d3dy53My5vcmcvMTk5OS94bGluayIgeG1sbnM9Imh0dHA6Ly93d3cudzMub3JnLzIwMDAvc3ZnIiBoZWlnaHQ9IjIwMCIgd2lkdGg9IjIwMCIgdmVyc2lvbj0iMS4xIiB2aWV3Qm94PSIwIDAgMTAyNCAxMDI0IiBjbGFzcz0iaWNvbiI+PHBhdGggZmlsbD0iIzQyNDI0MiIgZD0iTTM0MC42NDYyNDcgODA5LjE3MDI5OWExMzguMjU4ODI3IDEzOC4yNTg4MjcgMCAxIDEtMTE0LjQyODk5LTExNC40Mjg5OWMxNC44NjE0NjUtMTUuOTQ4NTQgMjguMzkyNjkzLTMxLjM2Nzg0NyA0MC40MDc3MzctNDYuMDU3NjY4YTE5My4wOTg5MjEgMTkzLjA5ODkyMSAwIDAgMC0xOTguODIwMzcgNDYuMDg2Mjc1Yy03NS4yMDg0NTQgNzUuMjA4NDU0LTc1LjIwODQ1NCAxOTcuNTkwMjU4IDAgMjcyLjgxMzAxNnMxOTcuNjA0NTYyIDc1LjIyMjc1NyAyNzIuODI3MzE5IDBhMTkzLjA5ODkyMSAxOTMuMDk4OTIxIDAgMCAwIDQ2LjEwMDU3OS0xOTguNzQ4ODUyYy0xNC43MTg0MjkgMTEuOTg2NDM3LTMwLjE2NjM0MiAyNS40ODkwNTgtNDYuMDg2Mjc1IDQwLjMzNjIxOXpNNzY0LjgwNTkwNSA2NDEuNjg5MTY5Qzc3Ni42MjA2OTkgNjU2LjUzNjMzIDc4OS45NjU5OCA2NzIuMDEyODUxIDgwNC42MTI4OSA2ODguMDA0MzAyQTEzOC4yNzMxMzEgMTM4LjI3MzEzMSAwIDEgMSA2ODkuODQwNjEzIDgwMi44NDgwOTdjLTE1Ljk5MTQ1MS0xNC42MzI2MDctMzEuNDY3OTcyLTI3Ljk2MzU4NC00Ni4zMjk0MzctMzkuNzY0MDc0QTE5My4wOTg5MjEgMTkzLjA5ODkyMSAwIDAgMCA2ODkuODQwNjEzIDk2MC44ODg4MzZjNzUuMjIyNzU3IDc1LjIyMjc1NyAxOTcuNjE4ODY2IDc1LjIyMjc1NyAyNzIuODI3MzIgMHM3NS4yMjI3NTctMTk3LjYwNDU2MiAwLTI3Mi44MjczMTlhMTkzLjA5ODkyMSAxOTMuMDk4OTIxIDAgMCAwLTE5Ny44NjIwMjgtNDYuMzcyMzQ4ek02OTIuODE1NzY3IDIyNy44NTY3MjZhMTM4LjI3MzEzMSAxMzguMjczMTMxIDAgMSAxIDExNC43MDA3NTkgMTE0LjY3MjE1MmMtMTUuMjQ3NjYzIDE2LjUyMDY4NS0yOC41MzU3MjkgMzEuOTI1Njg4LTQwLjA1MDE0NyA0Ni4yMjkzMTJhMTkzLjA5ODkyMSAxOTMuMDk4OTIxIDAgMCAwIDE5OC4yMzM5MjItNDYuMjcyMjIzYzc1LjIyMjc1Ny03NS4yMjI3NTcgNzUuMjIyNzU3LTE5Ny42MDQ1NjIgMC0yNzIuODI3MzE5cy0xOTcuNjE4ODY2LTc1LjIyMjc1Ny0yNzIuODI3MzE5IDBhMTkzLjA5ODkyMSAxOTMuMDk4OTIxIDAgMCAwLTQ2LjI0MzYxNiAxOTguMzM0MDQ3YzEzLjk0NjAzMy0xMS4yNTY5NTIgMjkuMzIyNDI5LTI0LjUzMDcxNSA0Ni4xODY0MDEtNDAuMTM1OTY5ek0yNTguMjg1OTgxIDM3NC45NDA4ODljLTEyLjQ0NDE1My0xNC43NzU2NDMtMjYuMjA0MjM5LTMwLjAzNzYxLTQxLjEyMjkxOC00NS43NzE1OTZhMTM4LjI1ODgyNyAxMzguMjU4ODI3IDAgMSAxIDExMy44MjgyMzgtMTEzLjc4NTMyN2MxNS42NDgxNjQgMTQuOTA0Mzc2IDMwLjk5NTk1MyAyOC42MDcyNDcgNDUuNzcxNTk2IDQxLjEyMjkxOWExOTMuMDk4OTIxIDE5My4wOTg5MjEgMCAwIDAtNDUuNjg1Nzc1LTIwMC4wOTMzOTNDMjU1Ljg1NDM2NS0xOC44MDkyNjUgMTMzLjQyOTY1LTE4LjgwOTI2NSA1OC4yNDk4MDMgNTYuNDEzNDkycy03NS4yMjI3NTcgMTk3LjYwNDU2MiAwIDI3Mi44MjczMTlhMTkzLjE4NDc0MiAxOTMuMTg0NzQyIDAgMCAwIDIwMC4wMzYxNzggNDUuNzAwMDc4ek01MTguMzQwMTY1IDQ2MC4xNzYxODNhNTYuMzI3NjcgNTYuMzI3NjcgMCAxIDAgMzkuOTA3MTEgMTYuNDkyMDc4IDU2LjAxMjk5MSA1Ni4wMTI5OTEgMCAwIDAtMzkuOTA3MTEtMTYuNDkyMDc4eiIvPjxwYXRoIGZpbGw9IiM0MjQyNDIiIGQ9Ik03ODcuOTQ5MTY5IDg0NS4zNDQxNjNjMy4yMDQwMTIgMy40MTg1NjYgMTEuMDU2NzAxIDEyLjMxNTQyIDEyLjcwMTYxNyAxMy45NDYwMzRsMC44MTUzMDcgMC43ODY2OTlhOC4wMTAwMjkgOC4wMTAwMjkgMCAwIDAgMS40MzAzNjIgMS4zMDE2M2MxOS4xOTU0NjMgMTcuMjY0NDc0IDQ2LjgxNTc2MSAxOC41OTQ3MTEgNjIuOTM1OTQ1IDIuNDE3MzEyIDE1LjEzMzIzNC0xNS4xMzMyMzQgMTQuOTQ3Mjg3LTQwLjM5MzQzMyAwLjYxNTA1Ni01OS4zMTcxMjhhMTY5Ljk5ODU2OCAxNjkuOTk4NTY4IDAgMCAwLTEyLjI0MzkwMi0xMi4xNzIzODNjLTEuNTg3NzAyLTEuMzQ0NTQxLTIuODYwNzI1LTIuNTE3NDM4LTMuNDc1NzgxLTMuMDAzNzYxLTQ0LjEyNjY3OS00MC44Nzk3NTctMTg4LjEzNTU2My0xODAuNzI2Mjg2LTE4NS4zMDM0NDUtMjYyLjY1NzQ0MyAwLjExNDQyOS0zLjQxODU2NiAwLTE3Ljc3OTQwNCAwLTIxLjkyNzQ1NS0wLjQwMDUwMS04Mi4yMDI5MjYgMTQxLjYwNTg3NS0yMjAuMDc1NTU1IDE4NS4zNDYzNTYtMjYwLjYxMjAyNSAwLjU0MzUzOC0wLjQ4NjMyMyAxLjg4ODA3OC0xLjY1OTIyIDMuNDc1NzgxLTMuMDE4MDY1YTE2Ny4wNTIwMjIgMTY3LjA1MjAyMiAwIDAgMCAxMi4yNDM5MDItMTIuMTU4MDhjMTQuMzAzNjI0LTE4LjkyMzY5NCAxNC41MTgxNzgtNDQuMTgzODk0LTAuNjE1MDU2LTU5LjMxNzEyOC0xNi4xMjAxODQtMTYuMTIwMTg0LTQzLjc0MDQ4MS0xNC44NDcxNjEtNjIuOTM1OTQ1IDIuNDE3MzEzYTguMDEwMDI5IDguMDEwMDI5IDAgMCAwLTEuNDMwMzYyIDEuMzAxNjNjLTAuMjcxNzY5IDAuMjcxNzY5LTAuNTQzNTM4IDAuNTE0OTMtMC44MTUzMDcgMC43NzIzOTUtMS42NDQ5MTcgMS42NDQ5MTctOS40OTc2MDYgMTAuNTQxNzcxLTEyLjcwMTYxOCAxMy45NzQ2NDEtNDMuMDY4MjExIDQ2LjEyOTE4Ny0xNzAuNTk5MzIgMTc1LjUzNDA3MS0yNTEuMjI4ODQ3IDE4MS42NTYwMjEtNi4zNTA4MDkgMC40ODYzMjMtMjguMDYzNzEgMC4zODYxOTgtMzMuMzcwMzU0IDAuMTcxNjQ0LTgyLjU0NjIxMy0zLjI0NjkyMy0yMTcuNDE1MDgxLTE0Mi4xMDY1MDItMjU3LjM1MDc5OS0xODUuMjg5MTQyLTAuNTAwNjI3LTAuNTQzNTM4LTEuNjU5MjItMS44ODgwNzgtMy4wMTgwNjQtMy40NzU3ODFhMTY0LjI2MjgxNSAxNjQuMjYyODE1IDAgMCAwLTEyLjE1ODA4LTEyLjI0MzkwMmMtMTguOTIzNjk0LTE0LjMwMzYyNC00NC4xODM4OTQtMTQuNTE4MTc4LTU5LjMxNzEyOCAwLjYwMDc1Mi0xNi4xMjAxODQgMTYuMTM0NDg4LTE0Ljg2MTQ2NSA0My43NTQ3ODUgMi40MTczMTIgNjIuOTM1OTQ1YTguNjgyMyA4LjY4MjMgMCAwIDAgMS4zMDE2MyAxLjQzMDM2MmwwLjc3MjM5NiAwLjgwMTAwM2MxLjY0NDkxNyAxLjY1OTIyIDEwLjU0MTc3MSA5LjQ5NzYwNiAxMy45NjAzMzYgMTIuNzAxNjE4QzIzNC44OTk1NTYgMjg5LjM2MjMwOCAzNTguODI2MTUzIDQxMS40NDM3MzcgMzcwLjg2OTgwNCA0OTIuMjU5MjExYzEuMzAxNjMgOC42OTY2MDMgMS4yMTU4MDggNDQuMjEyNTAxLTEuMTE1NjgzIDU1LjIyNjI5Mi0xNy4xNjQzNDggODAuNzI5NjUyLTEzNS45OTg4NTUgMTk3LjczMzI5NS0xNzkuODEwODU0IDIzOC42MjczNTUtMy40MTg1NjYgMy4yMTgzMTUtMTIuMzE1NDIgMTEuMDU2NzAxLTEzLjk2MDMzNyAxMi43MDE2MTdsLTAuNzcyMzk1IDAuODE1MzA3YTguMDEwMDI5IDguMDEwMDI5IDAgMCAwLTEuMzAxNjMgMS40MzAzNjJjLTE3LjI3ODc3NyAxOS4xOTU0NjMtMTguNTk0NzExIDQ2LjgxNTc2MS0yLjQxNzMxMyA2Mi45MzU5NDUgMTUuMTMzMjM0IDE1LjEzMzIzNCA0MC4zOTM0MzMgMTQuOTYxNTkgNTkuMzE3MTI4IDAuNjE1MDU2YTE2Ny4wNTIwMjIgMTY3LjA1MjAyMiAwIDAgMCAxMi4xNTgwOC0xMi4yNDM5MDJjMS4zNTg4NDQtMS41ODc3MDIgMi41MTc0MzgtMi44NjA3MjUgMy4wMzIzNjgtMy40NzU3ODFDMjg1LjA0ODA2MSA4MDYuNzI0Mzc5IDQxNC40NjcyNDkgNjczLjM0MzA4OCA0OTcuMzg1MzU2IDY2NC4wMzE0MjljNy40ODA3OTUtMC44NDM5MTQgMzMuOTU2ODAzLTAuODE1MzA3IDQwLjg2NTQ1My0wLjE1NzM0QzYxOC45NjYxNTggNjcxLjQ4MzYxNyA3NDUuMTUyNzI2IDc5OS41NzI1NjcgNzg3Ljk0OTE2OSA4NDUuMzQ0MTYzek01ODAuMjQ2MjQ4IDU3OC40MDk5MzdhODcuNTUyNDgxIDg3LjU1MjQ4MSAwIDEgMSAwLTEyMy44MTIxNjcgODYuOTgwMzM2IDg2Ljk4MDMzNiAwIDAgMSAwIDEyMy44MTIxNjd6Ii8+PC9zdmc+;fontSize=22;" parent="1" vertex="1">
          <mxGeometry x="184" y="916.87" width="28" height="28" as="geometry" />
        </mxCell>
        <mxCell id="oHYq3X2Aw_v4aejKyTAJ-2" value="" style="shape=image;verticalLabelPosition=bottom;labelBackgroundColor=default;verticalAlign=top;aspect=fixed;imageAspect=0;image=data:image/svg+xml,PHN2ZyB4bWxuczp4bGluaz0iaHR0cDovL3d3dy53My5vcmcvMTk5OS94bGluayIgeG1sbnM9Imh0dHA6Ly93d3cudzMub3JnLzIwMDAvc3ZnIiBoZWlnaHQ9IjIwMCIgd2lkdGg9IjIwMCIgdmVyc2lvbj0iMS4xIiB2aWV3Qm94PSIwIDAgMTAyNCAxMDI0IiBjbGFzcz0iaWNvbiI+PHBhdGggZmlsbD0iIzY2NjY2NiIgZD0iTTk3LjgzIDI0MC4wM3EtNi43My0yLjY5LTkuNDItNS4zOC05LjQxLTkuNDEtMTAuNzUtMjAuMTcgMC0xMy40NSA4LjA3LTIxLjUxIDQwLjM0LTQ0LjM4IDg4Ljc1LTgwLjY5IDU3LjgyLTQwLjM0IDEwMy41NC02MC41MSA1Mi40NC0yNS41NSAxMTQuMy0zNy42NSAxMjEuMDItMjguMjQgMjQwLjcgMCA2My4yMSAxMy40NSAxMTQuMzEgMzcuNjUgNTEuMDkgMjIuODYgMTAyLjE5IDYwLjUxIDQ4LjQxIDM2LjMxIDg4Ljc1IDgwLjY5IDguMDcgOC4wNiA4LjA3IDIxLjUxLTEuMzQgMTAuNzYtMTAuNzUgMjAuMTctMTAuNzYgOC4wNy0yMS41MiA2LjczLTEwLjc2IDAtMjAuMTctOS40Mi00MC4zNC00NC4zNy04MC42OC03My45Ni0zOS0zMi4yNy05MS40NC01Ny44Mi00OC40MS0yMS41MS0xMDIuMi0zMy42MlE1NzIuNTEgNTUuODEgNTEyIDU1LjgxcS01MS4xIDAtMTA3LjU4IDEwLjc1LTUyLjQ0IDEyLjExLTEwMi4yIDM0Ljk3LTQ0LjM3IDE4LjgyLTkyLjc4IDU2LjQ3LTQ3LjA3IDM3LjY2LTc5LjM0IDczLjk2LTEuMzQgMS4zNS0xMC43NiA4LjA3SDk3Ljgzek0yMzIuMyAzNTUuNjhxLTUuMzgtMi42OS02LjcyLTQuMDQtMTAuNzYtOC4wNy0xMC43Ni0yMC4xNyAwLTEzLjQ1IDguMDctMjEuNTEgNTIuNDQtNjMuMiAxMjkuMDktOTguMTcgMzMuNjItMTYuMTMgNzcuOTktMjUuNTUgMzcuNjUtOS40MSA4Mi4wMy05LjQxdDgyLjAzIDkuNDFxNDQuMzcgOS40MiA3Ny45OSAyNS41NSAzMi4yNyAxMy40NSA2OS45MyA0MS42OSAzNC45NiAyOC4yNCA2MC41MSA1Ny44MiA2LjcyIDYuNzIgNi43MiAyMS41MiAwIDEwLjc1LTkuNDEgMjAuMTctMTAuNzYgOS40MS0yMS41MiA2LjcyLTEyLjEgMC0yMS41MS05LjQxLTE3LjQ4LTIxLjUyLTUxLjEtNDguNDEtMzAuOTMtMjEuNTItNjAuNTEtMzQuOTYtMzIuMjgtMTQuOC02NS44OS0yMi44NlE1NDYuOTYgMjM2IDUxMiAyMzZxLTM2LjMxIDAtNjkuOTMgOC4wNy0yOC4yMyA1LjM3LTY1Ljg5IDIxLjUxLTI1LjU1IDEyLjEtNTcuODIgMzQuOTYtMzMuNjIgMjYuOS01MS4xIDQ4LjQxLTIuNjkgMi42OS0xMC43NiA4LjA3aC0xMi4xbC0xMi4xLTEuMzR6IG00MTQuMTcgMTE4LjMzaC0xMi4xcS04LjA3LTUuMzgtMTAuNzYtOC4wNy0yMS41MS0yNS41NS00OS43NS0zNy42NS02MS44Ni0yOS41OC0xMjMuNzIgMC0yNS41NSAxMC43Ni01MS4xIDM3LjY1LTYuNzIgMTAuNzYtMjAuMTcgMTAuNzYtMTMuNDQgMC0yMS41MS04LjA3LTkuNDItNi43Mi05LjQyLTIwLjE3LTIuNjgtMTIuMSA2LjczLTIxLjUxIDI4LjI0LTMzLjYyIDcxLjI3LTUyLjQ1IDg0LjcyLTQwLjM0IDE3Mi4xMiAwIDQzLjAzIDE4LjgzIDY5LjkzIDUyLjQ1IDguMDcgOC4wNyA4LjA3IDIxLjUxLTIuNjkgMTQuNzktMTAuNzYgMjAuMTctMS4zNSAxLjM1LTkuNDIgNS4zOC0yLjY4IDEuMzUtOS40MSAxLjM1di0xLjM1ek02MjIuMjcgMTAyNEg0MDEuNzNxLTQxLjY4IDAtNzEuOTQtMzAuMjUtMzAuMjUtMzAuMjUtMzAuMjUtNzEuOTVWNzAxLjI3cTAtNDEuNjkgMzAuMjUtNzEuOTR0NzEuOTQtMzAuMjVoMjIwLjU0cTQxLjY4IDAgNzEuOTQgMzAuMjUgMzAuMjUgMzAuMjUgMzAuMjUgNzEuOTRWOTIxLjhxMCA0MS42OS0zMC4yNSA3MS45NS0zMC4yNSAzMC4yNS03MS45NCAzMC4yNXpNNDAxLjczIDY1OC4yNHEtMTcuNDggMC0zMC4yNSAxMi43Ny0xMi43OCAxMi43Ny0xMi43OCAzMC4yNXYyMjAuNTNxMCAxNy40OCAxMi43OCAzMC4yNiAxMi43NyAxMi43NyAzMC4yNSAxMi43N2gyMjAuNTRxMTcuNDggMCAzMC4yNS0xMi43NyAxMi43Ny0xMi43OCAxMi43Ny0zMC4yNlY3MDEuMjZxMC0xNy40OC0xMi43Ny0zMC4yNXQtMzAuMjUtMTIuNzdINDAxLjczek01MTIgOTA5LjdxLTQxLjY5IDEuMzQtNzAuNi0yNy41Ny0yOC45MS0yOC45MS0yOC45MS03MC41OSAwLTQwLjM1IDI4LjkxLTY5LjI2IDI4LjkxLTI4LjkxIDY5LjI2LTI4LjkxIDQxLjY4LTEuMzQgNzAuNTkgMjcuNTcgMjguOTEgMjguOTEgMjguOTEgNzAuNiAwIDQwLjM0LTI4LjI0IDY5LjI1UTU1My42OSA5MDkuNyA1MTIgOTA5Ljd6IG0yNy41Ny0xMjUuNzNxLTExLjQzLTExLjQzLTI3LjU3LTExLjQzdC0yNy41NyAxMS40M1E0NzMgNzk1LjQgNDczIDgxMS41M3QxMS40MyAyNy41NnExMS40MyAxMS40MyAyNy41NyAxMS40M3QyNy41Ny0xMS40M1E1NTEgODI3LjY2IDU1MSA4MTEuNTN0LTExLjQzLTI3LjU2eiIvPjwvc3ZnPg==;fontSize=22;" parent="1" vertex="1">
          <mxGeometry x="165.5" y="958.37" width="28" height="28" as="geometry" />
        </mxCell>
        <mxCell id="oHYq3X2Aw_v4aejKyTAJ-3" value="" style="shape=image;verticalLabelPosition=bottom;labelBackgroundColor=default;verticalAlign=top;aspect=fixed;imageAspect=0;image=data:image/svg+xml,PHN2ZyB4bWxuczp4bGluaz0iaHR0cDovL3d3dy53My5vcmcvMTk5OS94bGluayIgeG1sbnM9Imh0dHA6Ly93d3cudzMub3JnLzIwMDAvc3ZnIiBoZWlnaHQ9IjIwMCIgd2lkdGg9IjIwMCIgdmVyc2lvbj0iMS4xIiB2aWV3Qm94PSIwIDAgMTAyNCAxMDI0IiBjbGFzcz0iaWNvbiI+PHBhdGggZmlsbD0iIzY2NjY2NiIgZD0iTTk3LjgzIDI0MC4wM3EtNi43My0yLjY5LTkuNDItNS4zOC05LjQxLTkuNDEtMTAuNzUtMjAuMTcgMC0xMy40NSA4LjA3LTIxLjUxIDQwLjM0LTQ0LjM4IDg4Ljc1LTgwLjY5IDU3LjgyLTQwLjM0IDEwMy41NC02MC41MSA1Mi40NC0yNS41NSAxMTQuMy0zNy42NSAxMjEuMDItMjguMjQgMjQwLjcgMCA2My4yMSAxMy40NSAxMTQuMzEgMzcuNjUgNTEuMDkgMjIuODYgMTAyLjE5IDYwLjUxIDQ4LjQxIDM2LjMxIDg4Ljc1IDgwLjY5IDguMDcgOC4wNiA4LjA3IDIxLjUxLTEuMzQgMTAuNzYtMTAuNzUgMjAuMTctMTAuNzYgOC4wNy0yMS41MiA2LjczLTEwLjc2IDAtMjAuMTctOS40Mi00MC4zNC00NC4zNy04MC42OC03My45Ni0zOS0zMi4yNy05MS40NC01Ny44Mi00OC40MS0yMS41MS0xMDIuMi0zMy42MlE1NzIuNTEgNTUuODEgNTEyIDU1LjgxcS01MS4xIDAtMTA3LjU4IDEwLjc1LTUyLjQ0IDEyLjExLTEwMi4yIDM0Ljk3LTQ0LjM3IDE4LjgyLTkyLjc4IDU2LjQ3LTQ3LjA3IDM3LjY2LTc5LjM0IDczLjk2LTEuMzQgMS4zNS0xMC43NiA4LjA3SDk3Ljgzek0yMzIuMyAzNTUuNjhxLTUuMzgtMi42OS02LjcyLTQuMDQtMTAuNzYtOC4wNy0xMC43Ni0yMC4xNyAwLTEzLjQ1IDguMDctMjEuNTEgNTIuNDQtNjMuMiAxMjkuMDktOTguMTcgMzMuNjItMTYuMTMgNzcuOTktMjUuNTUgMzcuNjUtOS40MSA4Mi4wMy05LjQxdDgyLjAzIDkuNDFxNDQuMzcgOS40MiA3Ny45OSAyNS41NSAzMi4yNyAxMy40NSA2OS45MyA0MS42OSAzNC45NiAyOC4yNCA2MC41MSA1Ny44MiA2LjcyIDYuNzIgNi43MiAyMS41MiAwIDEwLjc1LTkuNDEgMjAuMTctMTAuNzYgOS40MS0yMS41MiA2LjcyLTEyLjEgMC0yMS41MS05LjQxLTE3LjQ4LTIxLjUyLTUxLjEtNDguNDEtMzAuOTMtMjEuNTItNjAuNTEtMzQuOTYtMzIuMjgtMTQuOC02NS44OS0yMi44NlE1NDYuOTYgMjM2IDUxMiAyMzZxLTM2LjMxIDAtNjkuOTMgOC4wNy0yOC4yMyA1LjM3LTY1Ljg5IDIxLjUxLTI1LjU1IDEyLjEtNTcuODIgMzQuOTYtMzMuNjIgMjYuOS01MS4xIDQ4LjQxLTIuNjkgMi42OS0xMC43NiA4LjA3aC0xMi4xbC0xMi4xLTEuMzR6IG00MTQuMTcgMTE4LjMzaC0xMi4xcS04LjA3LTUuMzgtMTAuNzYtOC4wNy0yMS41MS0yNS41NS00OS43NS0zNy42NS02MS44Ni0yOS41OC0xMjMuNzIgMC0yNS41NSAxMC43Ni01MS4xIDM3LjY1LTYuNzIgMTAuNzYtMjAuMTcgMTAuNzYtMTMuNDQgMC0yMS41MS04LjA3LTkuNDItNi43Mi05LjQyLTIwLjE3LTIuNjgtMTIuMSA2LjczLTIxLjUxIDI4LjI0LTMzLjYyIDcxLjI3LTUyLjQ1IDg0LjcyLTQwLjM0IDE3Mi4xMiAwIDQzLjAzIDE4LjgzIDY5LjkzIDUyLjQ1IDguMDcgOC4wNyA4LjA3IDIxLjUxLTIuNjkgMTQuNzktMTAuNzYgMjAuMTctMS4zNSAxLjM1LTkuNDIgNS4zOC0yLjY4IDEuMzUtOS40MSAxLjM1di0xLjM1ek02MjIuMjcgMTAyNEg0MDEuNzNxLTQxLjY4IDAtNzEuOTQtMzAuMjUtMzAuMjUtMzAuMjUtMzAuMjUtNzEuOTVWNzAxLjI3cTAtNDEuNjkgMzAuMjUtNzEuOTR0NzEuOTQtMzAuMjVoMjIwLjU0cTQxLjY4IDAgNzEuOTQgMzAuMjUgMzAuMjUgMzAuMjUgMzAuMjUgNzEuOTRWOTIxLjhxMCA0MS42OS0zMC4yNSA3MS45NS0zMC4yNSAzMC4yNS03MS45NCAzMC4yNXpNNDAxLjczIDY1OC4yNHEtMTcuNDggMC0zMC4yNSAxMi43Ny0xMi43OCAxMi43Ny0xMi43OCAzMC4yNXYyMjAuNTNxMCAxNy40OCAxMi43OCAzMC4yNiAxMi43NyAxMi43NyAzMC4yNSAxMi43N2gyMjAuNTRxMTcuNDggMCAzMC4yNS0xMi43NyAxMi43Ny0xMi43OCAxMi43Ny0zMC4yNlY3MDEuMjZxMC0xNy40OC0xMi43Ny0zMC4yNXQtMzAuMjUtMTIuNzdINDAxLjczek01MTIgOTA5LjdxLTQxLjY5IDEuMzQtNzAuNi0yNy41Ny0yOC45MS0yOC45MS0yOC45MS03MC41OSAwLTQwLjM1IDI4LjkxLTY5LjI2IDI4LjkxLTI4LjkxIDY5LjI2LTI4LjkxIDQxLjY4LTEuMzQgNzAuNTkgMjcuNTcgMjguOTEgMjguOTEgMjguOTEgNzAuNiAwIDQwLjM0LTI4LjI0IDY5LjI1UTU1My42OSA5MDkuNyA1MTIgOTA5Ljd6IG0yNy41Ny0xMjUuNzNxLTExLjQzLTExLjQzLTI3LjU3LTExLjQzdC0yNy41NyAxMS40M1E0NzMgNzk1LjQgNDczIDgxMS41M3QxMS40MyAyNy41NnExMS40MyAxMS40MyAyNy41NyAxMS40M3QyNy41Ny0xMS40M1E1NTEgODI3LjY2IDU1MSA4MTEuNTN0LTExLjQzLTI3LjU2eiIvPjwvc3ZnPg==;fontSize=22;" parent="1" vertex="1">
          <mxGeometry x="208.5" y="943.87" width="28" height="28" as="geometry" />
        </mxCell>
        <mxCell id="oHYq3X2Aw_v4aejKyTAJ-4" value="" style="endArrow=classic;html=1;rounded=0;entryX=0;entryY=0.5;entryDx=0;entryDy=0;fontSize=22;exitX=1;exitY=0.5;exitDx=0;exitDy=0;" parent="1" source="WJZfMEvyKtw-Oj8JGxWV-36" target="oHYq3X2Aw_v4aejKyTAJ-13" edge="1">
          <mxGeometry width="50" height="50" relative="1" as="geometry">
            <mxPoint x="517" y="1029.87" as="sourcePoint" />
            <mxPoint x="550.4999999999999" y="1035.37" as="targetPoint" />
          </mxGeometry>
        </mxCell>
        <mxCell id="oHYq3X2Aw_v4aejKyTAJ-20" value="$$ f_r$$" style="edgeLabel;html=1;align=center;verticalAlign=middle;resizable=0;points=[];fontSize=22;labelBackgroundColor=none;" parent="oHYq3X2Aw_v4aejKyTAJ-4" vertex="1" connectable="0">
          <mxGeometry x="0.2595" relative="1" as="geometry">
            <mxPoint x="-9" y="-16" as="offset" />
          </mxGeometry>
        </mxCell>
        <mxCell id="oHYq3X2Aw_v4aejKyTAJ-7" value="" style="endArrow=none;html=1;rounded=0;fontSize=22;" parent="1" edge="1">
          <mxGeometry width="50" height="50" relative="1" as="geometry">
            <mxPoint x="789" y="1418" as="sourcePoint" />
            <mxPoint x="789" y="1298" as="targetPoint" />
            <Array as="points">
              <mxPoint x="809" y="1358" />
            </Array>
          </mxGeometry>
        </mxCell>
        <mxCell id="oHYq3X2Aw_v4aejKyTAJ-9" value="$$ \mathcal{N}_3(\cdot&lt;br style=&quot;font-size: 22px;&quot;&gt;)$$" style="rounded=1;whiteSpace=wrap;html=1;fontSize=22;strokeColor=none;fillColor=none;container=0;" parent="1" vertex="1">
          <mxGeometry x="816.5" y="1311" width="40" height="40" as="geometry" />
        </mxCell>
        <mxCell id="oHYq3X2Aw_v4aejKyTAJ-8" value="" style="endArrow=classic;html=1;rounded=0;entryX=0;entryY=0.5;entryDx=0;entryDy=0;fontSize=22;dashed=1;dashPattern=8 8;" parent="1" target="oHYq3X2Aw_v4aejKyTAJ-10" edge="1">
          <mxGeometry width="50" height="50" relative="1" as="geometry">
            <mxPoint x="809" y="1358" as="sourcePoint" />
            <mxPoint x="858.46" y="1358.04" as="targetPoint" />
          </mxGeometry>
        </mxCell>
        <mxCell id="oHYq3X2Aw_v4aejKyTAJ-10" value="$$\mathcal{S}^0_t$$" style="rounded=1;whiteSpace=wrap;html=1;fontSize=22;strokeColor=none;fillColor=none;" parent="1" vertex="1">
          <mxGeometry x="852" y="1338" width="49" height="40" as="geometry" />
        </mxCell>
        <mxCell id="oHYq3X2Aw_v4aejKyTAJ-13" value="$$\mathcal{S}_t^0$$" style="ellipse;whiteSpace=wrap;html=1;aspect=fixed;fillColor=#fff2cc;strokeColor=#d6b656;fontSize=22;fontColor=#505007;" parent="1" vertex="1">
          <mxGeometry x="559.5" y="1010.37" width="40" height="40" as="geometry" />
        </mxCell>
        <mxCell id="oHYq3X2Aw_v4aejKyTAJ-18" value="" style="endArrow=classic;html=1;rounded=0;exitX=1;exitY=0.5;exitDx=0;exitDy=0;entryX=0;entryY=0.5;entryDx=0;entryDy=0;fontSize=22;" parent="1" source="oHYq3X2Aw_v4aejKyTAJ-13" target="oHYq3X2Aw_v4aejKyTAJ-23" edge="1">
          <mxGeometry width="50" height="50" relative="1" as="geometry">
            <mxPoint x="643.1700000000001" y="1074.37" as="sourcePoint" />
            <mxPoint x="639.5" y="1000.37" as="targetPoint" />
          </mxGeometry>
        </mxCell>
        <mxCell id="oHYq3X2Aw_v4aejKyTAJ-23" value="$$\mathcal{S}_t&lt;br style=&quot;font-size: 22px;&quot;&gt;^1$$" style="ellipse;whiteSpace=wrap;html=1;aspect=fixed;fillColor=#dae8fc;strokeColor=#6c8ebf;fontSize=22;fontColor=#040490;" parent="1" vertex="1">
          <mxGeometry x="658.5" y="979.75" width="40" height="40" as="geometry" />
        </mxCell>
        <mxCell id="oHYq3X2Aw_v4aejKyTAJ-24" value="$$\mathcal{S}_t&lt;br style=&quot;font-size: 22px;&quot;&gt;^{\prime&lt;br style=&quot;font-size: 22px;&quot;&gt;1}$$" style="ellipse;whiteSpace=wrap;html=1;aspect=fixed;fillColor=#dae8fc;strokeColor=#6c8ebf;fontSize=22;fontColor=#040490;textOpacity=40;opacity=40;" parent="1" vertex="1">
          <mxGeometry x="658" y="1039.87" width="40" height="40" as="geometry" />
        </mxCell>
        <mxCell id="oHYq3X2Aw_v4aejKyTAJ-25" value="" style="endArrow=classic;html=1;rounded=0;exitX=1;exitY=0.5;exitDx=0;exitDy=0;entryX=0;entryY=0.5;entryDx=0;entryDy=0;fontSize=22;opacity=40;" parent="1" source="oHYq3X2Aw_v4aejKyTAJ-13" target="oHYq3X2Aw_v4aejKyTAJ-24" edge="1">
          <mxGeometry width="50" height="50" relative="1" as="geometry">
            <mxPoint x="604.5" y="1045.37" as="sourcePoint" />
            <mxPoint x="640.5" y="1005.37" as="targetPoint" />
          </mxGeometry>
        </mxCell>
        <mxCell id="oHYq3X2Aw_v4aejKyTAJ-28" value="$$ \hat{a}_{t}^1&lt;br style=&quot;font-size: 22px;&quot;&gt;$$" style="rounded=1;whiteSpace=wrap;html=1;fontSize=22;strokeColor=none;fillColor=none;container=0;" parent="1" vertex="1">
          <mxGeometry x="592" y="983.87" width="40" height="40" as="geometry" />
        </mxCell>
        <mxCell id="oHYq3X2Aw_v4aejKyTAJ-31" value="$$ \hat{a}_{t}^{\prime 1}&lt;br style=&quot;border-color: var(--border-color); font-size: 22px;&quot;&gt;$$" style="rounded=1;whiteSpace=wrap;html=1;fontSize=22;strokeColor=none;fillColor=none;container=0;opacity=40;textOpacity=40;" parent="1" vertex="1">
          <mxGeometry x="594.5" y="1038.12" width="40" height="40" as="geometry" />
        </mxCell>
        <mxCell id="oHYq3X2Aw_v4aejKyTAJ-32" value="" style="endArrow=classic;html=1;rounded=0;exitX=1;exitY=0.5;exitDx=0;exitDy=0;entryX=0;entryY=0.5;entryDx=0;entryDy=0;fontSize=22;textOpacity=40;opacity=40;" parent="1" source="oHYq3X2Aw_v4aejKyTAJ-23" target="oHYq3X2Aw_v4aejKyTAJ-34" edge="1">
          <mxGeometry width="50" height="50" relative="1" as="geometry">
            <mxPoint x="705.5" y="976.37" as="sourcePoint" />
            <mxPoint x="745.5" y="945.87" as="targetPoint" />
          </mxGeometry>
        </mxCell>
        <mxCell id="oHYq3X2Aw_v4aejKyTAJ-34" value="$$\mathcal{S}_t&lt;br style=&quot;font-size: 22px;&quot;&gt;^2$$" style="ellipse;whiteSpace=wrap;html=1;aspect=fixed;fillColor=#dae8fc;strokeColor=#6c8ebf;fontSize=22;fontColor=#040490;textOpacity=40;opacity=40;" parent="1" vertex="1">
          <mxGeometry x="762" y="950.87" width="40" height="40" as="geometry" />
        </mxCell>
        <mxCell id="oHYq3X2Aw_v4aejKyTAJ-35" value="$$\mathcal{S}_t&lt;br style=&quot;font-size: 22px;&quot;&gt;^{\prime&lt;br style=&quot;font-size: 22px;&quot;&gt;2}$$" style="ellipse;whiteSpace=wrap;html=1;aspect=fixed;fillColor=#dae8fc;strokeColor=#6c8ebf;fontSize=22;fontColor=#040490;" parent="1" vertex="1">
          <mxGeometry x="762" y="1010.37" width="40" height="40" as="geometry" />
        </mxCell>
        <mxCell id="oHYq3X2Aw_v4aejKyTAJ-36" value="" style="endArrow=classic;html=1;rounded=0;exitX=1;exitY=0.5;exitDx=0;exitDy=0;entryX=0;entryY=0.5;entryDx=0;entryDy=0;fontSize=22;" parent="1" source="oHYq3X2Aw_v4aejKyTAJ-23" target="oHYq3X2Aw_v4aejKyTAJ-35" edge="1">
          <mxGeometry width="50" height="50" relative="1" as="geometry">
            <mxPoint x="705.5" y="976.37" as="sourcePoint" />
            <mxPoint x="746.5" y="950.87" as="targetPoint" />
          </mxGeometry>
        </mxCell>
        <mxCell id="oHYq3X2Aw_v4aejKyTAJ-38" value="$$ \hat{a}_{t}^2&lt;br style=&quot;border-color: var(--border-color); font-size: 22px;&quot;&gt;$$" style="rounded=1;whiteSpace=wrap;html=1;fontSize=22;strokeColor=none;fillColor=none;container=0;textOpacity=40;" parent="1" vertex="1">
          <mxGeometry x="691" y="954.87" width="40" height="40" as="geometry" />
        </mxCell>
        <mxCell id="oHYq3X2Aw_v4aejKyTAJ-39" value="$$ \hat{a}_{t}^{\prime 2}&lt;br style=&quot;border-color: var(--border-color); font-size: 22px;&quot;&gt;$$" style="rounded=1;whiteSpace=wrap;html=1;fontSize=22;strokeColor=none;fillColor=none;container=0;opacity=40;" parent="1" vertex="1">
          <mxGeometry x="694" y="1006.87" width="40" height="40" as="geometry" />
        </mxCell>
        <mxCell id="oHYq3X2Aw_v4aejKyTAJ-43" value="$$ \cdot \cdot \cdot&lt;br style=&quot;font-size: 22px;&quot;&gt;$$" style="rounded=1;whiteSpace=wrap;html=1;fontSize=22;strokeColor=none;fillColor=none;container=0;" parent="1" vertex="1">
          <mxGeometry x="802" y="1009.87" width="40" height="40" as="geometry" />
        </mxCell>
        <mxCell id="oHYq3X2Aw_v4aejKyTAJ-47" value="" style="endArrow=classic;html=1;rounded=0;entryX=0;entryY=0.5;entryDx=0;entryDy=0;fontSize=22;" parent="1" edge="1">
          <mxGeometry width="50" height="50" relative="1" as="geometry">
            <mxPoint x="839.5" y="1030.87" as="sourcePoint" />
            <mxPoint x="867" y="1030.8700000000001" as="targetPoint" />
          </mxGeometry>
        </mxCell>
        <mxCell id="oHYq3X2Aw_v4aejKyTAJ-49" value="$$\pi _t$$" style="rounded=1;whiteSpace=wrap;html=1;fontSize=22;strokeColor=none;labelBackgroundColor=none;fillColor=none;" parent="1" vertex="1">
          <mxGeometry x="868" y="1010.87" width="22" height="40" as="geometry" />
        </mxCell>
        <mxCell id="oHYq3X2Aw_v4aejKyTAJ-56" value="" style="shape=image;verticalLabelPosition=bottom;labelBackgroundColor=default;verticalAlign=top;aspect=fixed;imageAspect=0;image=data:image/svg+xml,PHN2ZyB4bWxuczp4bGluaz0iaHR0cDovL3d3dy53My5vcmcvMTk5OS94bGluayIgeG1sbnM9Imh0dHA6Ly93d3cudzMub3JnLzIwMDAvc3ZnIiBoZWlnaHQ9IjIwMCIgd2lkdGg9IjIwMCIgdmVyc2lvbj0iMS4xIiB2aWV3Qm94PSIwIDAgMTAyNCAxMDI0IiBjbGFzcz0iaWNvbiI+PHBhdGggZmlsbD0iIzY2NjY2NiIgZD0iTTk3LjgzIDI0MC4wM3EtNi43My0yLjY5LTkuNDItNS4zOC05LjQxLTkuNDEtMTAuNzUtMjAuMTcgMC0xMy40NSA4LjA3LTIxLjUxIDQwLjM0LTQ0LjM4IDg4Ljc1LTgwLjY5IDU3LjgyLTQwLjM0IDEwMy41NC02MC41MSA1Mi40NC0yNS41NSAxMTQuMy0zNy42NSAxMjEuMDItMjguMjQgMjQwLjcgMCA2My4yMSAxMy40NSAxMTQuMzEgMzcuNjUgNTEuMDkgMjIuODYgMTAyLjE5IDYwLjUxIDQ4LjQxIDM2LjMxIDg4Ljc1IDgwLjY5IDguMDcgOC4wNiA4LjA3IDIxLjUxLTEuMzQgMTAuNzYtMTAuNzUgMjAuMTctMTAuNzYgOC4wNy0yMS41MiA2LjczLTEwLjc2IDAtMjAuMTctOS40Mi00MC4zNC00NC4zNy04MC42OC03My45Ni0zOS0zMi4yNy05MS40NC01Ny44Mi00OC40MS0yMS41MS0xMDIuMi0zMy42MlE1NzIuNTEgNTUuODEgNTEyIDU1LjgxcS01MS4xIDAtMTA3LjU4IDEwLjc1LTUyLjQ0IDEyLjExLTEwMi4yIDM0Ljk3LTQ0LjM3IDE4LjgyLTkyLjc4IDU2LjQ3LTQ3LjA3IDM3LjY2LTc5LjM0IDczLjk2LTEuMzQgMS4zNS0xMC43NiA4LjA3SDk3Ljgzek0yMzIuMyAzNTUuNjhxLTUuMzgtMi42OS02LjcyLTQuMDQtMTAuNzYtOC4wNy0xMC43Ni0yMC4xNyAwLTEzLjQ1IDguMDctMjEuNTEgNTIuNDQtNjMuMiAxMjkuMDktOTguMTcgMzMuNjItMTYuMTMgNzcuOTktMjUuNTUgMzcuNjUtOS40MSA4Mi4wMy05LjQxdDgyLjAzIDkuNDFxNDQuMzcgOS40MiA3Ny45OSAyNS41NSAzMi4yNyAxMy40NSA2OS45MyA0MS42OSAzNC45NiAyOC4yNCA2MC41MSA1Ny44MiA2LjcyIDYuNzIgNi43MiAyMS41MiAwIDEwLjc1LTkuNDEgMjAuMTctMTAuNzYgOS40MS0yMS41MiA2LjcyLTEyLjEgMC0yMS41MS05LjQxLTE3LjQ4LTIxLjUyLTUxLjEtNDguNDEtMzAuOTMtMjEuNTItNjAuNTEtMzQuOTYtMzIuMjgtMTQuOC02NS44OS0yMi44NlE1NDYuOTYgMjM2IDUxMiAyMzZxLTM2LjMxIDAtNjkuOTMgOC4wNy0yOC4yMyA1LjM3LTY1Ljg5IDIxLjUxLTI1LjU1IDEyLjEtNTcuODIgMzQuOTYtMzMuNjIgMjYuOS01MS4xIDQ4LjQxLTIuNjkgMi42OS0xMC43NiA4LjA3aC0xMi4xbC0xMi4xLTEuMzR6IG00MTQuMTcgMTE4LjMzaC0xMi4xcS04LjA3LTUuMzgtMTAuNzYtOC4wNy0yMS41MS0yNS41NS00OS43NS0zNy42NS02MS44Ni0yOS41OC0xMjMuNzIgMC0yNS41NSAxMC43Ni01MS4xIDM3LjY1LTYuNzIgMTAuNzYtMjAuMTcgMTAuNzYtMTMuNDQgMC0yMS41MS04LjA3LTkuNDItNi43Mi05LjQyLTIwLjE3LTIuNjgtMTIuMSA2LjczLTIxLjUxIDI4LjI0LTMzLjYyIDcxLjI3LTUyLjQ1IDg0LjcyLTQwLjM0IDE3Mi4xMiAwIDQzLjAzIDE4LjgzIDY5LjkzIDUyLjQ1IDguMDcgOC4wNyA4LjA3IDIxLjUxLTIuNjkgMTQuNzktMTAuNzYgMjAuMTctMS4zNSAxLjM1LTkuNDIgNS4zOC0yLjY4IDEuMzUtOS40MSAxLjM1di0xLjM1ek02MjIuMjcgMTAyNEg0MDEuNzNxLTQxLjY4IDAtNzEuOTQtMzAuMjUtMzAuMjUtMzAuMjUtMzAuMjUtNzEuOTVWNzAxLjI3cTAtNDEuNjkgMzAuMjUtNzEuOTR0NzEuOTQtMzAuMjVoMjIwLjU0cTQxLjY4IDAgNzEuOTQgMzAuMjUgMzAuMjUgMzAuMjUgMzAuMjUgNzEuOTRWOTIxLjhxMCA0MS42OS0zMC4yNSA3MS45NS0zMC4yNSAzMC4yNS03MS45NCAzMC4yNXpNNDAxLjczIDY1OC4yNHEtMTcuNDggMC0zMC4yNSAxMi43Ny0xMi43OCAxMi43Ny0xMi43OCAzMC4yNXYyMjAuNTNxMCAxNy40OCAxMi43OCAzMC4yNiAxMi43NyAxMi43NyAzMC4yNSAxMi43N2gyMjAuNTRxMTcuNDggMCAzMC4yNS0xMi43NyAxMi43Ny0xMi43OCAxMi43Ny0zMC4yNlY3MDEuMjZxMC0xNy40OC0xMi43Ny0zMC4yNXQtMzAuMjUtMTIuNzdINDAxLjczek01MTIgOTA5LjdxLTQxLjY5IDEuMzQtNzAuNi0yNy41Ny0yOC45MS0yOC45MS0yOC45MS03MC41OSAwLTQwLjM1IDI4LjkxLTY5LjI2IDI4LjkxLTI4LjkxIDY5LjI2LTI4LjkxIDQxLjY4LTEuMzQgNzAuNTkgMjcuNTcgMjguOTEgMjguOTEgMjguOTEgNzAuNiAwIDQwLjM0LTI4LjI0IDY5LjI1UTU1My42OSA5MDkuNyA1MTIgOTA5Ljd6IG0yNy41Ny0xMjUuNzNxLTExLjQzLTExLjQzLTI3LjU3LTExLjQzdC0yNy41NyAxMS40M1E0NzMgNzk1LjQgNDczIDgxMS41M3QxMS40MyAyNy41NnExMS40MyAxMS40MyAyNy41NyAxMS40M3QyNy41Ny0xMS40M1E1NTEgODI3LjY2IDU1MSA4MTEuNTN0LTExLjQzLTI3LjU2eiIvPjwvc3ZnPg==;fontSize=22;" parent="1" vertex="1">
          <mxGeometry x="358" y="919.87" width="28" height="28" as="geometry" />
        </mxCell>
        <mxCell id="oHYq3X2Aw_v4aejKyTAJ-57" value="" style="shape=image;verticalLabelPosition=bottom;labelBackgroundColor=default;verticalAlign=top;aspect=fixed;imageAspect=0;image=data:image/svg+xml,PHN2ZyB4bWxuczp4bGluaz0iaHR0cDovL3d3dy53My5vcmcvMTk5OS94bGluayIgeG1sbnM9Imh0dHA6Ly93d3cudzMub3JnLzIwMDAvc3ZnIiBoZWlnaHQ9IjIwMCIgd2lkdGg9IjIwMCIgdmVyc2lvbj0iMS4xIiB2aWV3Qm94PSIwIDAgMTAyNCAxMDI0IiBjbGFzcz0iaWNvbiI+PHBhdGggZmlsbD0iIzQyNDI0MiIgZD0iTTM0MC42NDYyNDcgODA5LjE3MDI5OWExMzguMjU4ODI3IDEzOC4yNTg4MjcgMCAxIDEtMTE0LjQyODk5LTExNC40Mjg5OWMxNC44NjE0NjUtMTUuOTQ4NTQgMjguMzkyNjkzLTMxLjM2Nzg0NyA0MC40MDc3MzctNDYuMDU3NjY4YTE5My4wOTg5MjEgMTkzLjA5ODkyMSAwIDAgMC0xOTguODIwMzcgNDYuMDg2Mjc1Yy03NS4yMDg0NTQgNzUuMjA4NDU0LTc1LjIwODQ1NCAxOTcuNTkwMjU4IDAgMjcyLjgxMzAxNnMxOTcuNjA0NTYyIDc1LjIyMjc1NyAyNzIuODI3MzE5IDBhMTkzLjA5ODkyMSAxOTMuMDk4OTIxIDAgMCAwIDQ2LjEwMDU3OS0xOTguNzQ4ODUyYy0xNC43MTg0MjkgMTEuOTg2NDM3LTMwLjE2NjM0MiAyNS40ODkwNTgtNDYuMDg2Mjc1IDQwLjMzNjIxOXpNNzY0LjgwNTkwNSA2NDEuNjg5MTY5Qzc3Ni42MjA2OTkgNjU2LjUzNjMzIDc4OS45NjU5OCA2NzIuMDEyODUxIDgwNC42MTI4OSA2ODguMDA0MzAyQTEzOC4yNzMxMzEgMTM4LjI3MzEzMSAwIDEgMSA2ODkuODQwNjEzIDgwMi44NDgwOTdjLTE1Ljk5MTQ1MS0xNC42MzI2MDctMzEuNDY3OTcyLTI3Ljk2MzU4NC00Ni4zMjk0MzctMzkuNzY0MDc0QTE5My4wOTg5MjEgMTkzLjA5ODkyMSAwIDAgMCA2ODkuODQwNjEzIDk2MC44ODg4MzZjNzUuMjIyNzU3IDc1LjIyMjc1NyAxOTcuNjE4ODY2IDc1LjIyMjc1NyAyNzIuODI3MzIgMHM3NS4yMjI3NTctMTk3LjYwNDU2MiAwLTI3Mi44MjczMTlhMTkzLjA5ODkyMSAxOTMuMDk4OTIxIDAgMCAwLTE5Ny44NjIwMjgtNDYuMzcyMzQ4ek02OTIuODE1NzY3IDIyNy44NTY3MjZhMTM4LjI3MzEzMSAxMzguMjczMTMxIDAgMSAxIDExNC43MDA3NTkgMTE0LjY3MjE1MmMtMTUuMjQ3NjYzIDE2LjUyMDY4NS0yOC41MzU3MjkgMzEuOTI1Njg4LTQwLjA1MDE0NyA0Ni4yMjkzMTJhMTkzLjA5ODkyMSAxOTMuMDk4OTIxIDAgMCAwIDE5OC4yMzM5MjItNDYuMjcyMjIzYzc1LjIyMjc1Ny03NS4yMjI3NTcgNzUuMjIyNzU3LTE5Ny42MDQ1NjIgMC0yNzIuODI3MzE5cy0xOTcuNjE4ODY2LTc1LjIyMjc1Ny0yNzIuODI3MzE5IDBhMTkzLjA5ODkyMSAxOTMuMDk4OTIxIDAgMCAwLTQ2LjI0MzYxNiAxOTguMzM0MDQ3YzEzLjk0NjAzMy0xMS4yNTY5NTIgMjkuMzIyNDI5LTI0LjUzMDcxNSA0Ni4xODY0MDEtNDAuMTM1OTY5ek0yNTguMjg1OTgxIDM3NC45NDA4ODljLTEyLjQ0NDE1My0xNC43NzU2NDMtMjYuMjA0MjM5LTMwLjAzNzYxLTQxLjEyMjkxOC00NS43NzE1OTZhMTM4LjI1ODgyNyAxMzguMjU4ODI3IDAgMSAxIDExMy44MjgyMzgtMTEzLjc4NTMyN2MxNS42NDgxNjQgMTQuOTA0Mzc2IDMwLjk5NTk1MyAyOC42MDcyNDcgNDUuNzcxNTk2IDQxLjEyMjkxOWExOTMuMDk4OTIxIDE5My4wOTg5MjEgMCAwIDAtNDUuNjg1Nzc1LTIwMC4wOTMzOTNDMjU1Ljg1NDM2NS0xOC44MDkyNjUgMTMzLjQyOTY1LTE4LjgwOTI2NSA1OC4yNDk4MDMgNTYuNDEzNDkycy03NS4yMjI3NTcgMTk3LjYwNDU2MiAwIDI3Mi44MjczMTlhMTkzLjE4NDc0MiAxOTMuMTg0NzQyIDAgMCAwIDIwMC4wMzYxNzggNDUuNzAwMDc4ek01MTguMzQwMTY1IDQ2MC4xNzYxODNhNTYuMzI3NjcgNTYuMzI3NjcgMCAxIDAgMzkuOTA3MTEgMTYuNDkyMDc4IDU2LjAxMjk5MSA1Ni4wMTI5OTEgMCAwIDAtMzkuOTA3MTEtMTYuNDkyMDc4eiIvPjxwYXRoIGZpbGw9IiM0MjQyNDIiIGQ9Ik03ODcuOTQ5MTY5IDg0NS4zNDQxNjNjMy4yMDQwMTIgMy40MTg1NjYgMTEuMDU2NzAxIDEyLjMxNTQyIDEyLjcwMTYxNyAxMy45NDYwMzRsMC44MTUzMDcgMC43ODY2OTlhOC4wMTAwMjkgOC4wMTAwMjkgMCAwIDAgMS40MzAzNjIgMS4zMDE2M2MxOS4xOTU0NjMgMTcuMjY0NDc0IDQ2LjgxNTc2MSAxOC41OTQ3MTEgNjIuOTM1OTQ1IDIuNDE3MzEyIDE1LjEzMzIzNC0xNS4xMzMyMzQgMTQuOTQ3Mjg3LTQwLjM5MzQzMyAwLjYxNTA1Ni01OS4zMTcxMjhhMTY5Ljk5ODU2OCAxNjkuOTk4NTY4IDAgMCAwLTEyLjI0MzkwMi0xMi4xNzIzODNjLTEuNTg3NzAyLTEuMzQ0NTQxLTIuODYwNzI1LTIuNTE3NDM4LTMuNDc1NzgxLTMuMDAzNzYxLTQ0LjEyNjY3OS00MC44Nzk3NTctMTg4LjEzNTU2My0xODAuNzI2Mjg2LTE4NS4zMDM0NDUtMjYyLjY1NzQ0MyAwLjExNDQyOS0zLjQxODU2NiAwLTE3Ljc3OTQwNCAwLTIxLjkyNzQ1NS0wLjQwMDUwMS04Mi4yMDI5MjYgMTQxLjYwNTg3NS0yMjAuMDc1NTU1IDE4NS4zNDYzNTYtMjYwLjYxMjAyNSAwLjU0MzUzOC0wLjQ4NjMyMyAxLjg4ODA3OC0xLjY1OTIyIDMuNDc1NzgxLTMuMDE4MDY1YTE2Ny4wNTIwMjIgMTY3LjA1MjAyMiAwIDAgMCAxMi4yNDM5MDItMTIuMTU4MDhjMTQuMzAzNjI0LTE4LjkyMzY5NCAxNC41MTgxNzgtNDQuMTgzODk0LTAuNjE1MDU2LTU5LjMxNzEyOC0xNi4xMjAxODQtMTYuMTIwMTg0LTQzLjc0MDQ4MS0xNC44NDcxNjEtNjIuOTM1OTQ1IDIuNDE3MzEzYTguMDEwMDI5IDguMDEwMDI5IDAgMCAwLTEuNDMwMzYyIDEuMzAxNjNjLTAuMjcxNzY5IDAuMjcxNzY5LTAuNTQzNTM4IDAuNTE0OTMtMC44MTUzMDcgMC43NzIzOTUtMS42NDQ5MTcgMS42NDQ5MTctOS40OTc2MDYgMTAuNTQxNzcxLTEyLjcwMTYxOCAxMy45NzQ2NDEtNDMuMDY4MjExIDQ2LjEyOTE4Ny0xNzAuNTk5MzIgMTc1LjUzNDA3MS0yNTEuMjI4ODQ3IDE4MS42NTYwMjEtNi4zNTA4MDkgMC40ODYzMjMtMjguMDYzNzEgMC4zODYxOTgtMzMuMzcwMzU0IDAuMTcxNjQ0LTgyLjU0NjIxMy0zLjI0NjkyMy0yMTcuNDE1MDgxLTE0Mi4xMDY1MDItMjU3LjM1MDc5OS0xODUuMjg5MTQyLTAuNTAwNjI3LTAuNTQzNTM4LTEuNjU5MjItMS44ODgwNzgtMy4wMTgwNjQtMy40NzU3ODFhMTY0LjI2MjgxNSAxNjQuMjYyODE1IDAgMCAwLTEyLjE1ODA4LTEyLjI0MzkwMmMtMTguOTIzNjk0LTE0LjMwMzYyNC00NC4xODM4OTQtMTQuNTE4MTc4LTU5LjMxNzEyOCAwLjYwMDc1Mi0xNi4xMjAxODQgMTYuMTM0NDg4LTE0Ljg2MTQ2NSA0My43NTQ3ODUgMi40MTczMTIgNjIuOTM1OTQ1YTguNjgyMyA4LjY4MjMgMCAwIDAgMS4zMDE2MyAxLjQzMDM2MmwwLjc3MjM5NiAwLjgwMTAwM2MxLjY0NDkxNyAxLjY1OTIyIDEwLjU0MTc3MSA5LjQ5NzYwNiAxMy45NjAzMzYgMTIuNzAxNjE4QzIzNC44OTk1NTYgMjg5LjM2MjMwOCAzNTguODI2MTUzIDQxMS40NDM3MzcgMzcwLjg2OTgwNCA0OTIuMjU5MjExYzEuMzAxNjMgOC42OTY2MDMgMS4yMTU4MDggNDQuMjEyNTAxLTEuMTE1NjgzIDU1LjIyNjI5Mi0xNy4xNjQzNDggODAuNzI5NjUyLTEzNS45OTg4NTUgMTk3LjczMzI5NS0xNzkuODEwODU0IDIzOC42MjczNTUtMy40MTg1NjYgMy4yMTgzMTUtMTIuMzE1NDIgMTEuMDU2NzAxLTEzLjk2MDMzNyAxMi43MDE2MTdsLTAuNzcyMzk1IDAuODE1MzA3YTguMDEwMDI5IDguMDEwMDI5IDAgMCAwLTEuMzAxNjMgMS40MzAzNjJjLTE3LjI3ODc3NyAxOS4xOTU0NjMtMTguNTk0NzExIDQ2LjgxNTc2MS0yLjQxNzMxMyA2Mi45MzU5NDUgMTUuMTMzMjM0IDE1LjEzMzIzNCA0MC4zOTM0MzMgMTQuOTYxNTkgNTkuMzE3MTI4IDAuNjE1MDU2YTE2Ny4wNTIwMjIgMTY3LjA1MjAyMiAwIDAgMCAxMi4xNTgwOC0xMi4yNDM5MDJjMS4zNTg4NDQtMS41ODc3MDIgMi41MTc0MzgtMi44NjA3MjUgMy4wMzIzNjgtMy40NzU3ODFDMjg1LjA0ODA2MSA4MDYuNzI0Mzc5IDQxNC40NjcyNDkgNjczLjM0MzA4OCA0OTcuMzg1MzU2IDY2NC4wMzE0MjljNy40ODA3OTUtMC44NDM5MTQgMzMuOTU2ODAzLTAuODE1MzA3IDQwLjg2NTQ1My0wLjE1NzM0QzYxOC45NjYxNTggNjcxLjQ4MzYxNyA3NDUuMTUyNzI2IDc5OS41NzI1NjcgNzg3Ljk0OTE2OSA4NDUuMzQ0MTYzek01ODAuMjQ2MjQ4IDU3OC40MDk5MzdhODcuNTUyNDgxIDg3LjU1MjQ4MSAwIDEgMSAwLTEyMy44MTIxNjcgODYuOTgwMzM2IDg2Ljk4MDMzNiAwIDAgMSAwIDEyMy44MTIxNjd6Ii8+PC9zdmc+;fontSize=22;" parent="1" vertex="1">
          <mxGeometry x="340" y="954.37" width="28" height="28" as="geometry" />
        </mxCell>
        <mxCell id="oHYq3X2Aw_v4aejKyTAJ-58" value="" style="shape=image;verticalLabelPosition=bottom;labelBackgroundColor=default;verticalAlign=top;aspect=fixed;imageAspect=0;image=data:image/svg+xml,PHN2ZyB4bWxuczp4bGluaz0iaHR0cDovL3d3dy53My5vcmcvMTk5OS94bGluayIgeG1sbnM9Imh0dHA6Ly93d3cudzMub3JnLzIwMDAvc3ZnIiBoZWlnaHQ9IjIwMCIgd2lkdGg9IjIwMCIgdmVyc2lvbj0iMS4xIiB2aWV3Qm94PSIwIDAgMTAyNCAxMDI0IiBjbGFzcz0iaWNvbiI+PHBhdGggZmlsbD0iIzQyNDI0MiIgZD0iTTM0MC42NDYyNDcgODA5LjE3MDI5OWExMzguMjU4ODI3IDEzOC4yNTg4MjcgMCAxIDEtMTE0LjQyODk5LTExNC40Mjg5OWMxNC44NjE0NjUtMTUuOTQ4NTQgMjguMzkyNjkzLTMxLjM2Nzg0NyA0MC40MDc3MzctNDYuMDU3NjY4YTE5My4wOTg5MjEgMTkzLjA5ODkyMSAwIDAgMC0xOTguODIwMzcgNDYuMDg2Mjc1Yy03NS4yMDg0NTQgNzUuMjA4NDU0LTc1LjIwODQ1NCAxOTcuNTkwMjU4IDAgMjcyLjgxMzAxNnMxOTcuNjA0NTYyIDc1LjIyMjc1NyAyNzIuODI3MzE5IDBhMTkzLjA5ODkyMSAxOTMuMDk4OTIxIDAgMCAwIDQ2LjEwMDU3OS0xOTguNzQ4ODUyYy0xNC43MTg0MjkgMTEuOTg2NDM3LTMwLjE2NjM0MiAyNS40ODkwNTgtNDYuMDg2Mjc1IDQwLjMzNjIxOXpNNzY0LjgwNTkwNSA2NDEuNjg5MTY5Qzc3Ni42MjA2OTkgNjU2LjUzNjMzIDc4OS45NjU5OCA2NzIuMDEyODUxIDgwNC42MTI4OSA2ODguMDA0MzAyQTEzOC4yNzMxMzEgMTM4LjI3MzEzMSAwIDEgMSA2ODkuODQwNjEzIDgwMi44NDgwOTdjLTE1Ljk5MTQ1MS0xNC42MzI2MDctMzEuNDY3OTcyLTI3Ljk2MzU4NC00Ni4zMjk0MzctMzkuNzY0MDc0QTE5My4wOTg5MjEgMTkzLjA5ODkyMSAwIDAgMCA2ODkuODQwNjEzIDk2MC44ODg4MzZjNzUuMjIyNzU3IDc1LjIyMjc1NyAxOTcuNjE4ODY2IDc1LjIyMjc1NyAyNzIuODI3MzIgMHM3NS4yMjI3NTctMTk3LjYwNDU2MiAwLTI3Mi44MjczMTlhMTkzLjA5ODkyMSAxOTMuMDk4OTIxIDAgMCAwLTE5Ny44NjIwMjgtNDYuMzcyMzQ4ek02OTIuODE1NzY3IDIyNy44NTY3MjZhMTM4LjI3MzEzMSAxMzguMjczMTMxIDAgMSAxIDExNC43MDA3NTkgMTE0LjY3MjE1MmMtMTUuMjQ3NjYzIDE2LjUyMDY4NS0yOC41MzU3MjkgMzEuOTI1Njg4LTQwLjA1MDE0NyA0Ni4yMjkzMTJhMTkzLjA5ODkyMSAxOTMuMDk4OTIxIDAgMCAwIDE5OC4yMzM5MjItNDYuMjcyMjIzYzc1LjIyMjc1Ny03NS4yMjI3NTcgNzUuMjIyNzU3LTE5Ny42MDQ1NjIgMC0yNzIuODI3MzE5cy0xOTcuNjE4ODY2LTc1LjIyMjc1Ny0yNzIuODI3MzE5IDBhMTkzLjA5ODkyMSAxOTMuMDk4OTIxIDAgMCAwLTQ2LjI0MzYxNiAxOTguMzM0MDQ3YzEzLjk0NjAzMy0xMS4yNTY5NTIgMjkuMzIyNDI5LTI0LjUzMDcxNSA0Ni4xODY0MDEtNDAuMTM1OTY5ek0yNTguMjg1OTgxIDM3NC45NDA4ODljLTEyLjQ0NDE1My0xNC43NzU2NDMtMjYuMjA0MjM5LTMwLjAzNzYxLTQxLjEyMjkxOC00NS43NzE1OTZhMTM4LjI1ODgyNyAxMzguMjU4ODI3IDAgMSAxIDExMy44MjgyMzgtMTEzLjc4NTMyN2MxNS42NDgxNjQgMTQuOTA0Mzc2IDMwLjk5NTk1MyAyOC42MDcyNDcgNDUuNzcxNTk2IDQxLjEyMjkxOWExOTMuMDk4OTIxIDE5My4wOTg5MjEgMCAwIDAtNDUuNjg1Nzc1LTIwMC4wOTMzOTNDMjU1Ljg1NDM2NS0xOC44MDkyNjUgMTMzLjQyOTY1LTE4LjgwOTI2NSA1OC4yNDk4MDMgNTYuNDEzNDkycy03NS4yMjI3NTcgMTk3LjYwNDU2MiAwIDI3Mi44MjczMTlhMTkzLjE4NDc0MiAxOTMuMTg0NzQyIDAgMCAwIDIwMC4wMzYxNzggNDUuNzAwMDc4ek01MTguMzQwMTY1IDQ2MC4xNzYxODNhNTYuMzI3NjcgNTYuMzI3NjcgMCAxIDAgMzkuOTA3MTEgMTYuNDkyMDc4IDU2LjAxMjk5MSA1Ni4wMTI5OTEgMCAwIDAtMzkuOTA3MTEtMTYuNDkyMDc4eiIvPjxwYXRoIGZpbGw9IiM0MjQyNDIiIGQ9Ik03ODcuOTQ5MTY5IDg0NS4zNDQxNjNjMy4yMDQwMTIgMy40MTg1NjYgMTEuMDU2NzAxIDEyLjMxNTQyIDEyLjcwMTYxNyAxMy45NDYwMzRsMC44MTUzMDcgMC43ODY2OTlhOC4wMTAwMjkgOC4wMTAwMjkgMCAwIDAgMS40MzAzNjIgMS4zMDE2M2MxOS4xOTU0NjMgMTcuMjY0NDc0IDQ2LjgxNTc2MSAxOC41OTQ3MTEgNjIuOTM1OTQ1IDIuNDE3MzEyIDE1LjEzMzIzNC0xNS4xMzMyMzQgMTQuOTQ3Mjg3LTQwLjM5MzQzMyAwLjYxNTA1Ni01OS4zMTcxMjhhMTY5Ljk5ODU2OCAxNjkuOTk4NTY4IDAgMCAwLTEyLjI0MzkwMi0xMi4xNzIzODNjLTEuNTg3NzAyLTEuMzQ0NTQxLTIuODYwNzI1LTIuNTE3NDM4LTMuNDc1NzgxLTMuMDAzNzYxLTQ0LjEyNjY3OS00MC44Nzk3NTctMTg4LjEzNTU2My0xODAuNzI2Mjg2LTE4NS4zMDM0NDUtMjYyLjY1NzQ0MyAwLjExNDQyOS0zLjQxODU2NiAwLTE3Ljc3OTQwNCAwLTIxLjkyNzQ1NS0wLjQwMDUwMS04Mi4yMDI5MjYgMTQxLjYwNTg3NS0yMjAuMDc1NTU1IDE4NS4zNDYzNTYtMjYwLjYxMjAyNSAwLjU0MzUzOC0wLjQ4NjMyMyAxLjg4ODA3OC0xLjY1OTIyIDMuNDc1NzgxLTMuMDE4MDY1YTE2Ny4wNTIwMjIgMTY3LjA1MjAyMiAwIDAgMCAxMi4yNDM5MDItMTIuMTU4MDhjMTQuMzAzNjI0LTE4LjkyMzY5NCAxNC41MTgxNzgtNDQuMTgzODk0LTAuNjE1MDU2LTU5LjMxNzEyOC0xNi4xMjAxODQtMTYuMTIwMTg0LTQzLjc0MDQ4MS0xNC44NDcxNjEtNjIuOTM1OTQ1IDIuNDE3MzEzYTguMDEwMDI5IDguMDEwMDI5IDAgMCAwLTEuNDMwMzYyIDEuMzAxNjNjLTAuMjcxNzY5IDAuMjcxNzY5LTAuNTQzNTM4IDAuNTE0OTMtMC44MTUzMDcgMC43NzIzOTUtMS42NDQ5MTcgMS42NDQ5MTctOS40OTc2MDYgMTAuNTQxNzcxLTEyLjcwMTYxOCAxMy45NzQ2NDEtNDMuMDY4MjExIDQ2LjEyOTE4Ny0xNzAuNTk5MzIgMTc1LjUzNDA3MS0yNTEuMjI4ODQ3IDE4MS42NTYwMjEtNi4zNTA4MDkgMC40ODYzMjMtMjguMDYzNzEgMC4zODYxOTgtMzMuMzcwMzU0IDAuMTcxNjQ0LTgyLjU0NjIxMy0zLjI0NjkyMy0yMTcuNDE1MDgxLTE0Mi4xMDY1MDItMjU3LjM1MDc5OS0xODUuMjg5MTQyLTAuNTAwNjI3LTAuNTQzNTM4LTEuNjU5MjItMS44ODgwNzgtMy4wMTgwNjQtMy40NzU3ODFhMTY0LjI2MjgxNSAxNjQuMjYyODE1IDAgMCAwLTEyLjE1ODA4LTEyLjI0MzkwMmMtMTguOTIzNjk0LTE0LjMwMzYyNC00NC4xODM4OTQtMTQuNTE4MTc4LTU5LjMxNzEyOCAwLjYwMDc1Mi0xNi4xMjAxODQgMTYuMTM0NDg4LTE0Ljg2MTQ2NSA0My43NTQ3ODUgMi40MTczMTIgNjIuOTM1OTQ1YTguNjgyMyA4LjY4MjMgMCAwIDAgMS4zMDE2MyAxLjQzMDM2MmwwLjc3MjM5NiAwLjgwMTAwM2MxLjY0NDkxNyAxLjY1OTIyIDEwLjU0MTc3MSA5LjQ5NzYwNiAxMy45NjAzMzYgMTIuNzAxNjE4QzIzNC44OTk1NTYgMjg5LjM2MjMwOCAzNTguODI2MTUzIDQxMS40NDM3MzcgMzcwLjg2OTgwNCA0OTIuMjU5MjExYzEuMzAxNjMgOC42OTY2MDMgMS4yMTU4MDggNDQuMjEyNTAxLTEuMTE1NjgzIDU1LjIyNjI5Mi0xNy4xNjQzNDggODAuNzI5NjUyLTEzNS45OTg4NTUgMTk3LjczMzI5NS0xNzkuODEwODU0IDIzOC42MjczNTUtMy40MTg1NjYgMy4yMTgzMTUtMTIuMzE1NDIgMTEuMDU2NzAxLTEzLjk2MDMzNyAxMi43MDE2MTdsLTAuNzcyMzk1IDAuODE1MzA3YTguMDEwMDI5IDguMDEwMDI5IDAgMCAwLTEuMzAxNjMgMS40MzAzNjJjLTE3LjI3ODc3NyAxOS4xOTU0NjMtMTguNTk0NzExIDQ2LjgxNTc2MS0yLjQxNzMxMyA2Mi45MzU5NDUgMTUuMTMzMjM0IDE1LjEzMzIzNCA0MC4zOTM0MzMgMTQuOTYxNTkgNTkuMzE3MTI4IDAuNjE1MDU2YTE2Ny4wNTIwMjIgMTY3LjA1MjAyMiAwIDAgMCAxMi4xNTgwOC0xMi4yNDM5MDJjMS4zNTg4NDQtMS41ODc3MDIgMi41MTc0MzgtMi44NjA3MjUgMy4wMzIzNjgtMy40NzU3ODFDMjg1LjA0ODA2MSA4MDYuNzI0Mzc5IDQxNC40NjcyNDkgNjczLjM0MzA4OCA0OTcuMzg1MzU2IDY2NC4wMzE0MjljNy40ODA3OTUtMC44NDM5MTQgMzMuOTU2ODAzLTAuODE1MzA3IDQwLjg2NTQ1My0wLjE1NzM0QzYxOC45NjYxNTggNjcxLjQ4MzYxNyA3NDUuMTUyNzI2IDc5OS41NzI1NjcgNzg3Ljk0OTE2OSA4NDUuMzQ0MTYzek01ODAuMjQ2MjQ4IDU3OC40MDk5MzdhODcuNTUyNDgxIDg3LjU1MjQ4MSAwIDEgMSAwLTEyMy44MTIxNjcgODYuOTgwMzM2IDg2Ljk4MDMzNiAwIDAgMSAwIDEyMy44MTIxNjd6Ii8+PC9zdmc+;fontSize=22;" parent="1" vertex="1">
          <mxGeometry x="402" y="920.87" width="28" height="28" as="geometry" />
        </mxCell>
        <mxCell id="oHYq3X2Aw_v4aejKyTAJ-59" value="" style="shape=image;verticalLabelPosition=bottom;labelBackgroundColor=default;verticalAlign=top;aspect=fixed;imageAspect=0;image=data:image/svg+xml,PHN2ZyB4bWxuczp4bGluaz0iaHR0cDovL3d3dy53My5vcmcvMTk5OS94bGluayIgeG1sbnM9Imh0dHA6Ly93d3cudzMub3JnLzIwMDAvc3ZnIiBoZWlnaHQ9IjIwMCIgd2lkdGg9IjIwMCIgdmVyc2lvbj0iMS4xIiB2aWV3Qm94PSIwIDAgMTAyNCAxMDI0IiBjbGFzcz0iaWNvbiI+PHBhdGggZmlsbD0iIzY2NjY2NiIgZD0iTTk3LjgzIDI0MC4wM3EtNi43My0yLjY5LTkuNDItNS4zOC05LjQxLTkuNDEtMTAuNzUtMjAuMTcgMC0xMy40NSA4LjA3LTIxLjUxIDQwLjM0LTQ0LjM4IDg4Ljc1LTgwLjY5IDU3LjgyLTQwLjM0IDEwMy41NC02MC41MSA1Mi40NC0yNS41NSAxMTQuMy0zNy42NSAxMjEuMDItMjguMjQgMjQwLjcgMCA2My4yMSAxMy40NSAxMTQuMzEgMzcuNjUgNTEuMDkgMjIuODYgMTAyLjE5IDYwLjUxIDQ4LjQxIDM2LjMxIDg4Ljc1IDgwLjY5IDguMDcgOC4wNiA4LjA3IDIxLjUxLTEuMzQgMTAuNzYtMTAuNzUgMjAuMTctMTAuNzYgOC4wNy0yMS41MiA2LjczLTEwLjc2IDAtMjAuMTctOS40Mi00MC4zNC00NC4zNy04MC42OC03My45Ni0zOS0zMi4yNy05MS40NC01Ny44Mi00OC40MS0yMS41MS0xMDIuMi0zMy42MlE1NzIuNTEgNTUuODEgNTEyIDU1LjgxcS01MS4xIDAtMTA3LjU4IDEwLjc1LTUyLjQ0IDEyLjExLTEwMi4yIDM0Ljk3LTQ0LjM3IDE4LjgyLTkyLjc4IDU2LjQ3LTQ3LjA3IDM3LjY2LTc5LjM0IDczLjk2LTEuMzQgMS4zNS0xMC43NiA4LjA3SDk3Ljgzek0yMzIuMyAzNTUuNjhxLTUuMzgtMi42OS02LjcyLTQuMDQtMTAuNzYtOC4wNy0xMC43Ni0yMC4xNyAwLTEzLjQ1IDguMDctMjEuNTEgNTIuNDQtNjMuMiAxMjkuMDktOTguMTcgMzMuNjItMTYuMTMgNzcuOTktMjUuNTUgMzcuNjUtOS40MSA4Mi4wMy05LjQxdDgyLjAzIDkuNDFxNDQuMzcgOS40MiA3Ny45OSAyNS41NSAzMi4yNyAxMy40NSA2OS45MyA0MS42OSAzNC45NiAyOC4yNCA2MC41MSA1Ny44MiA2LjcyIDYuNzIgNi43MiAyMS41MiAwIDEwLjc1LTkuNDEgMjAuMTctMTAuNzYgOS40MS0yMS41MiA2LjcyLTEyLjEgMC0yMS41MS05LjQxLTE3LjQ4LTIxLjUyLTUxLjEtNDguNDEtMzAuOTMtMjEuNTItNjAuNTEtMzQuOTYtMzIuMjgtMTQuOC02NS44OS0yMi44NlE1NDYuOTYgMjM2IDUxMiAyMzZxLTM2LjMxIDAtNjkuOTMgOC4wNy0yOC4yMyA1LjM3LTY1Ljg5IDIxLjUxLTI1LjU1IDEyLjEtNTcuODIgMzQuOTYtMzMuNjIgMjYuOS01MS4xIDQ4LjQxLTIuNjkgMi42OS0xMC43NiA4LjA3aC0xMi4xbC0xMi4xLTEuMzR6IG00MTQuMTcgMTE4LjMzaC0xMi4xcS04LjA3LTUuMzgtMTAuNzYtOC4wNy0yMS41MS0yNS41NS00OS43NS0zNy42NS02MS44Ni0yOS41OC0xMjMuNzIgMC0yNS41NSAxMC43Ni01MS4xIDM3LjY1LTYuNzIgMTAuNzYtMjAuMTcgMTAuNzYtMTMuNDQgMC0yMS41MS04LjA3LTkuNDItNi43Mi05LjQyLTIwLjE3LTIuNjgtMTIuMSA2LjczLTIxLjUxIDI4LjI0LTMzLjYyIDcxLjI3LTUyLjQ1IDg0LjcyLTQwLjM0IDE3Mi4xMiAwIDQzLjAzIDE4LjgzIDY5LjkzIDUyLjQ1IDguMDcgOC4wNyA4LjA3IDIxLjUxLTIuNjkgMTQuNzktMTAuNzYgMjAuMTctMS4zNSAxLjM1LTkuNDIgNS4zOC0yLjY4IDEuMzUtOS40MSAxLjM1di0xLjM1ek02MjIuMjcgMTAyNEg0MDEuNzNxLTQxLjY4IDAtNzEuOTQtMzAuMjUtMzAuMjUtMzAuMjUtMzAuMjUtNzEuOTVWNzAxLjI3cTAtNDEuNjkgMzAuMjUtNzEuOTR0NzEuOTQtMzAuMjVoMjIwLjU0cTQxLjY4IDAgNzEuOTQgMzAuMjUgMzAuMjUgMzAuMjUgMzAuMjUgNzEuOTRWOTIxLjhxMCA0MS42OS0zMC4yNSA3MS45NS0zMC4yNSAzMC4yNS03MS45NCAzMC4yNXpNNDAxLjczIDY1OC4yNHEtMTcuNDggMC0zMC4yNSAxMi43Ny0xMi43OCAxMi43Ny0xMi43OCAzMC4yNXYyMjAuNTNxMCAxNy40OCAxMi43OCAzMC4yNiAxMi43NyAxMi43NyAzMC4yNSAxMi43N2gyMjAuNTRxMTcuNDggMCAzMC4yNS0xMi43NyAxMi43Ny0xMi43OCAxMi43Ny0zMC4yNlY3MDEuMjZxMC0xNy40OC0xMi43Ny0zMC4yNXQtMzAuMjUtMTIuNzdINDAxLjczek01MTIgOTA5LjdxLTQxLjY5IDEuMzQtNzAuNi0yNy41Ny0yOC45MS0yOC45MS0yOC45MS03MC41OSAwLTQwLjM1IDI4LjkxLTY5LjI2IDI4LjkxLTI4LjkxIDY5LjI2LTI4LjkxIDQxLjY4LTEuMzQgNzAuNTkgMjcuNTcgMjguOTEgMjguOTEgMjguOTEgNzAuNiAwIDQwLjM0LTI4LjI0IDY5LjI1UTU1My42OSA5MDkuNyA1MTIgOTA5Ljd6IG0yNy41Ny0xMjUuNzNxLTExLjQzLTExLjQzLTI3LjU3LTExLjQzdC0yNy41NyAxMS40M1E0NzMgNzk1LjQgNDczIDgxMS41M3QxMS40MyAyNy41NnExMS40MyAxMS40MyAyNy41NyAxMS40M3QyNy41Ny0xMS40M1E1NTEgODI3LjY2IDU1MSA4MTEuNTN0LTExLjQzLTI3LjU2eiIvPjwvc3ZnPg==;fontSize=22;" parent="1" vertex="1">
          <mxGeometry x="383.5" y="962.37" width="28" height="28" as="geometry" />
        </mxCell>
        <mxCell id="oHYq3X2Aw_v4aejKyTAJ-60" value="" style="shape=image;verticalLabelPosition=bottom;labelBackgroundColor=default;verticalAlign=top;aspect=fixed;imageAspect=0;image=data:image/svg+xml,PHN2ZyB4bWxuczp4bGluaz0iaHR0cDovL3d3dy53My5vcmcvMTk5OS94bGluayIgeG1sbnM9Imh0dHA6Ly93d3cudzMub3JnLzIwMDAvc3ZnIiBoZWlnaHQ9IjIwMCIgd2lkdGg9IjIwMCIgdmVyc2lvbj0iMS4xIiB2aWV3Qm94PSIwIDAgMTAyNCAxMDI0IiBjbGFzcz0iaWNvbiI+PHBhdGggZmlsbD0iIzY2NjY2NiIgZD0iTTk3LjgzIDI0MC4wM3EtNi43My0yLjY5LTkuNDItNS4zOC05LjQxLTkuNDEtMTAuNzUtMjAuMTcgMC0xMy40NSA4LjA3LTIxLjUxIDQwLjM0LTQ0LjM4IDg4Ljc1LTgwLjY5IDU3LjgyLTQwLjM0IDEwMy41NC02MC41MSA1Mi40NC0yNS41NSAxMTQuMy0zNy42NSAxMjEuMDItMjguMjQgMjQwLjcgMCA2My4yMSAxMy40NSAxMTQuMzEgMzcuNjUgNTEuMDkgMjIuODYgMTAyLjE5IDYwLjUxIDQ4LjQxIDM2LjMxIDg4Ljc1IDgwLjY5IDguMDcgOC4wNiA4LjA3IDIxLjUxLTEuMzQgMTAuNzYtMTAuNzUgMjAuMTctMTAuNzYgOC4wNy0yMS41MiA2LjczLTEwLjc2IDAtMjAuMTctOS40Mi00MC4zNC00NC4zNy04MC42OC03My45Ni0zOS0zMi4yNy05MS40NC01Ny44Mi00OC40MS0yMS41MS0xMDIuMi0zMy42MlE1NzIuNTEgNTUuODEgNTEyIDU1LjgxcS01MS4xIDAtMTA3LjU4IDEwLjc1LTUyLjQ0IDEyLjExLTEwMi4yIDM0Ljk3LTQ0LjM3IDE4LjgyLTkyLjc4IDU2LjQ3LTQ3LjA3IDM3LjY2LTc5LjM0IDczLjk2LTEuMzQgMS4zNS0xMC43NiA4LjA3SDk3Ljgzek0yMzIuMyAzNTUuNjhxLTUuMzgtMi42OS02LjcyLTQuMDQtMTAuNzYtOC4wNy0xMC43Ni0yMC4xNyAwLTEzLjQ1IDguMDctMjEuNTEgNTIuNDQtNjMuMiAxMjkuMDktOTguMTcgMzMuNjItMTYuMTMgNzcuOTktMjUuNTUgMzcuNjUtOS40MSA4Mi4wMy05LjQxdDgyLjAzIDkuNDFxNDQuMzcgOS40MiA3Ny45OSAyNS41NSAzMi4yNyAxMy40NSA2OS45MyA0MS42OSAzNC45NiAyOC4yNCA2MC41MSA1Ny44MiA2LjcyIDYuNzIgNi43MiAyMS41MiAwIDEwLjc1LTkuNDEgMjAuMTctMTAuNzYgOS40MS0yMS41MiA2LjcyLTEyLjEgMC0yMS41MS05LjQxLTE3LjQ4LTIxLjUyLTUxLjEtNDguNDEtMzAuOTMtMjEuNTItNjAuNTEtMzQuOTYtMzIuMjgtMTQuOC02NS44OS0yMi44NlE1NDYuOTYgMjM2IDUxMiAyMzZxLTM2LjMxIDAtNjkuOTMgOC4wNy0yOC4yMyA1LjM3LTY1Ljg5IDIxLjUxLTI1LjU1IDEyLjEtNTcuODIgMzQuOTYtMzMuNjIgMjYuOS01MS4xIDQ4LjQxLTIuNjkgMi42OS0xMC43NiA4LjA3aC0xMi4xbC0xMi4xLTEuMzR6IG00MTQuMTcgMTE4LjMzaC0xMi4xcS04LjA3LTUuMzgtMTAuNzYtOC4wNy0yMS41MS0yNS41NS00OS43NS0zNy42NS02MS44Ni0yOS41OC0xMjMuNzIgMC0yNS41NSAxMC43Ni01MS4xIDM3LjY1LTYuNzIgMTAuNzYtMjAuMTcgMTAuNzYtMTMuNDQgMC0yMS41MS04LjA3LTkuNDItNi43Mi05LjQyLTIwLjE3LTIuNjgtMTIuMSA2LjczLTIxLjUxIDI4LjI0LTMzLjYyIDcxLjI3LTUyLjQ1IDg0LjcyLTQwLjM0IDE3Mi4xMiAwIDQzLjAzIDE4LjgzIDY5LjkzIDUyLjQ1IDguMDcgOC4wNyA4LjA3IDIxLjUxLTIuNjkgMTQuNzktMTAuNzYgMjAuMTctMS4zNSAxLjM1LTkuNDIgNS4zOC0yLjY4IDEuMzUtOS40MSAxLjM1di0xLjM1ek02MjIuMjcgMTAyNEg0MDEuNzNxLTQxLjY4IDAtNzEuOTQtMzAuMjUtMzAuMjUtMzAuMjUtMzAuMjUtNzEuOTVWNzAxLjI3cTAtNDEuNjkgMzAuMjUtNzEuOTR0NzEuOTQtMzAuMjVoMjIwLjU0cTQxLjY4IDAgNzEuOTQgMzAuMjUgMzAuMjUgMzAuMjUgMzAuMjUgNzEuOTRWOTIxLjhxMCA0MS42OS0zMC4yNSA3MS45NS0zMC4yNSAzMC4yNS03MS45NCAzMC4yNXpNNDAxLjczIDY1OC4yNHEtMTcuNDggMC0zMC4yNSAxMi43Ny0xMi43OCAxMi43Ny0xMi43OCAzMC4yNXYyMjAuNTNxMCAxNy40OCAxMi43OCAzMC4yNiAxMi43NyAxMi43NyAzMC4yNSAxMi43N2gyMjAuNTRxMTcuNDggMCAzMC4yNS0xMi43NyAxMi43Ny0xMi43OCAxMi43Ny0zMC4yNlY3MDEuMjZxMC0xNy40OC0xMi43Ny0zMC4yNXQtMzAuMjUtMTIuNzdINDAxLjczek01MTIgOTA5LjdxLTQxLjY5IDEuMzQtNzAuNi0yNy41Ny0yOC45MS0yOC45MS0yOC45MS03MC41OSAwLTQwLjM1IDI4LjkxLTY5LjI2IDI4LjkxLTI4LjkxIDY5LjI2LTI4LjkxIDQxLjY4LTEuMzQgNzAuNTkgMjcuNTcgMjguOTEgMjguOTEgMjguOTEgNzAuNiAwIDQwLjM0LTI4LjI0IDY5LjI1UTU1My42OSA5MDkuNyA1MTIgOTA5Ljd6IG0yNy41Ny0xMjUuNzNxLTExLjQzLTExLjQzLTI3LjU3LTExLjQzdC0yNy41NyAxMS40M1E0NzMgNzk1LjQgNDczIDgxMS41M3QxMS40MyAyNy41NnExMS40MyAxMS40MyAyNy41NyAxMS40M3QyNy41Ny0xMS40M1E1NTEgODI3LjY2IDU1MSA4MTEuNTN0LTExLjQzLTI3LjU2eiIvPjwvc3ZnPg==;fontSize=22;" parent="1" vertex="1">
          <mxGeometry x="426.5" y="947.87" width="28" height="28" as="geometry" />
        </mxCell>
        <mxCell id="oHYq3X2Aw_v4aejKyTAJ-64" value="" style="endArrow=classic;html=1;rounded=0;fontSize=22;entryX=0;entryY=0.5;entryDx=0;entryDy=0;exitX=1;exitY=0.5;exitDx=0;exitDy=0;" parent="1" source="RDKnEIGk1JcvIj0OZwjk-11" target="AgPFI7VYK6XhWhTlhIIF-1" edge="1">
          <mxGeometry width="50" height="50" relative="1" as="geometry">
            <mxPoint x="207" y="1017.0099999999998" as="sourcePoint" />
            <mxPoint x="277" y="1017.0099999999998" as="targetPoint" />
          </mxGeometry>
        </mxCell>
        <mxCell id="oHYq3X2Aw_v4aejKyTAJ-76" style="edgeStyle=orthogonalEdgeStyle;rounded=0;orthogonalLoop=1;jettySize=auto;html=1;entryX=0.5;entryY=1;entryDx=0;entryDy=0;fontSize=22;" parent="1" source="oHYq3X2Aw_v4aejKyTAJ-66" target="oHYq3X2Aw_v4aejKyTAJ-69" edge="1">
          <mxGeometry relative="1" as="geometry" />
        </mxCell>
        <mxCell id="oHYq3X2Aw_v4aejKyTAJ-66" value="$$\pi _{t+1}$$" style="rounded=1;whiteSpace=wrap;html=1;fontSize=22;strokeColor=none;labelBackgroundColor=none;fillColor=none;" parent="1" vertex="1">
          <mxGeometry x="369" y="1079.37" width="55" height="30" as="geometry" />
        </mxCell>
        <mxCell id="oHYq3X2Aw_v4aejKyTAJ-67" value="" style="endArrow=classic;html=1;rounded=0;entryX=0.5;entryY=0;entryDx=0;entryDy=0;exitX=0.5;exitY=1;exitDx=0;exitDy=0;exitPerimeter=0;fontSize=22;" parent="1" source="AgPFI7VYK6XhWhTlhIIF-1" target="oHYq3X2Aw_v4aejKyTAJ-66" edge="1">
          <mxGeometry width="50" height="50" relative="1" as="geometry">
            <mxPoint x="396.35" y="1050.37" as="sourcePoint" />
            <mxPoint x="396.35" y="1090.37" as="targetPoint" />
          </mxGeometry>
        </mxCell>
        <mxCell id="oHYq3X2Aw_v4aejKyTAJ-68" value="MCTS" style="edgeLabel;html=1;align=center;verticalAlign=middle;resizable=0;points=[];fontSize=28;labelBackgroundColor=none;fontFamily=Garamond;fontStyle=1" parent="oHYq3X2Aw_v4aejKyTAJ-67" vertex="1" connectable="0">
          <mxGeometry x="0.2595" relative="1" as="geometry">
            <mxPoint x="-44" y="-6" as="offset" />
          </mxGeometry>
        </mxCell>
        <mxCell id="oHYq3X2Aw_v4aejKyTAJ-69" value="$$ \cdot \cdot \cdot&lt;br style=&quot;font-size: 22px;&quot;&gt;$$" style="rounded=1;whiteSpace=wrap;html=1;fontSize=22;strokeColor=none;fillColor=none;container=0;" parent="1" vertex="1">
          <mxGeometry x="433.5" y="1005.25" width="40" height="24" as="geometry" />
        </mxCell>
        <mxCell id="oHYq3X2Aw_v4aejKyTAJ-70" value="" style="endArrow=classic;html=1;rounded=0;strokeColor=#990000;fontSize=22;" parent="1" edge="1">
          <mxGeometry width="50" height="50" relative="1" as="geometry">
            <mxPoint x="377.5" y="917.87" as="sourcePoint" />
            <mxPoint x="384.5" y="897.37" as="targetPoint" />
          </mxGeometry>
        </mxCell>
        <mxCell id="oHYq3X2Aw_v4aejKyTAJ-71" value="" style="endArrow=classic;html=1;rounded=0;strokeColor=#990000;fontSize=22;" parent="1" edge="1">
          <mxGeometry width="50" height="50" relative="1" as="geometry">
            <mxPoint x="389" y="985.37" as="sourcePoint" />
            <mxPoint x="377.5" y="999.8699999999999" as="targetPoint" />
          </mxGeometry>
        </mxCell>
        <mxCell id="oHYq3X2Aw_v4aejKyTAJ-72" value="" style="endArrow=classic;html=1;rounded=0;strokeColor=#990000;fontSize=22;" parent="1" edge="1">
          <mxGeometry width="50" height="50" relative="1" as="geometry">
            <mxPoint x="429" y="969.37" as="sourcePoint" />
            <mxPoint x="419" y="985.37" as="targetPoint" />
          </mxGeometry>
        </mxCell>
        <mxCell id="oHYq3X2Aw_v4aejKyTAJ-73" value="" style="endArrow=classic;html=1;rounded=0;strokeColor=#0066CC;exitX=0;exitY=0;exitDx=0;exitDy=0;fontSize=22;" parent="1" source="oHYq3X2Aw_v4aejKyTAJ-58" edge="1">
          <mxGeometry width="50" height="50" relative="1" as="geometry">
            <mxPoint x="412.5" y="914.12" as="sourcePoint" />
            <mxPoint x="386" y="899.37" as="targetPoint" />
          </mxGeometry>
        </mxCell>
        <mxCell id="oHYq3X2Aw_v4aejKyTAJ-74" value="" style="endArrow=classic;html=1;rounded=0;strokeColor=#0066CC;exitX=1;exitY=1;exitDx=0;exitDy=0;fontSize=22;" parent="1" source="oHYq3X2Aw_v4aejKyTAJ-57" edge="1">
          <mxGeometry width="50" height="50" relative="1" as="geometry">
            <mxPoint x="440.5" y="916.12" as="sourcePoint" />
            <mxPoint x="380" y="990" as="targetPoint" />
          </mxGeometry>
        </mxCell>
        <mxCell id="oHYq3X2Aw_v4aejKyTAJ-77" value="" style="endArrow=none;dashed=1;html=1;rounded=0;entryX=0.25;entryY=1;entryDx=0;entryDy=0;exitX=0.426;exitY=-0.005;exitDx=0;exitDy=0;exitPerimeter=0;strokeColor=#CC0000;strokeWidth=2;fontSize=22;" parent="1" source="WJZfMEvyKtw-Oj8JGxWV-38" target="WJZfMEvyKtw-Oj8JGxWV-36" edge="1">
          <mxGeometry width="50" height="50" relative="1" as="geometry">
            <mxPoint x="650" y="1161" as="sourcePoint" />
            <mxPoint x="452.5" y="1041" as="targetPoint" />
          </mxGeometry>
        </mxCell>
        <mxCell id="oHYq3X2Aw_v4aejKyTAJ-78" value="" style="endArrow=none;dashed=1;html=1;rounded=0;entryX=0.5;entryY=1;entryDx=0;entryDy=0;exitX=0.712;exitY=0.001;exitDx=0;exitDy=0;exitPerimeter=0;strokeColor=#CC0000;strokeWidth=2;fontSize=22;" parent="1" source="WJZfMEvyKtw-Oj8JGxWV-38" target="oHYq3X2Aw_v4aejKyTAJ-13" edge="1">
          <mxGeometry width="50" height="50" relative="1" as="geometry">
            <mxPoint x="655.7280000000001" y="1124.688" as="sourcePoint" />
            <mxPoint x="398" y="1044" as="targetPoint" />
          </mxGeometry>
        </mxCell>
        <mxCell id="WJZfMEvyKtw-Oj8JGxWV-39" value="Attention-based Graph Network" style="rounded=1;whiteSpace=wrap;html=1;fontSize=28;strokeColor=none;fillColor=none;fontFamily=Garamond;fontStyle=1" parent="1" vertex="1">
          <mxGeometry x="480" y="1607" width="413" height="11" as="geometry" />
        </mxCell>
        <mxCell id="AgPFI7VYK6XhWhTlhIIF-1" value="$$s_{t+1}$$" style="rounded=1;whiteSpace=wrap;html=1;fontSize=22;strokeColor=none;fillColor=none;" parent="1" vertex="1">
          <mxGeometry x="367" y="996.37" width="59" height="40" as="geometry" />
        </mxCell>
        <mxCell id="AgPFI7VYK6XhWhTlhIIF-2" value="" style="group;fontSize=22;" parent="1" vertex="1" connectable="0">
          <mxGeometry x="129.5" y="1213.5" width="45" height="18" as="geometry" />
        </mxCell>
        <mxCell id="7-pGLLORBGx0Y4iLze1Q-26" value="" style="ellipse;whiteSpace=wrap;html=1;aspect=fixed;fillColor=#6d9edf;fontColor=#ffffff;strokeColor=#006EAF;container=0;fontSize=22;" parent="AgPFI7VYK6XhWhTlhIIF-2" vertex="1">
          <mxGeometry x="35" y="6" width="10" height="10" as="geometry" />
        </mxCell>
        <mxCell id="7-pGLLORBGx0Y4iLze1Q-27" value="" style="ellipse;whiteSpace=wrap;html=1;aspect=fixed;fillColor=#093f86;fontColor=#ffffff;strokeColor=#006EAF;fontSize=22;" parent="AgPFI7VYK6XhWhTlhIIF-2" vertex="1">
          <mxGeometry x="21" width="10" height="10" as="geometry" />
        </mxCell>
        <mxCell id="7-pGLLORBGx0Y4iLze1Q-28" value="" style="ellipse;whiteSpace=wrap;html=1;aspect=fixed;fillColor=#7ba6ea;fontColor=#ffffff;strokeColor=#006EAF;fontSize=22;" parent="AgPFI7VYK6XhWhTlhIIF-2" vertex="1">
          <mxGeometry y="8" width="10" height="10" as="geometry" />
        </mxCell>
        <mxCell id="RDKnEIGk1JcvIj0OZwjk-6" style="edgeStyle=orthogonalEdgeStyle;rounded=0;orthogonalLoop=1;jettySize=auto;html=1;entryX=0.5;entryY=1;entryDx=0;entryDy=0;fontSize=22;" parent="1" source="RDKnEIGk1JcvIj0OZwjk-7" target="RDKnEIGk1JcvIj0OZwjk-10" edge="1">
          <mxGeometry relative="1" as="geometry" />
        </mxCell>
        <mxCell id="RDKnEIGk1JcvIj0OZwjk-7" value="$$\pi _{t}$$" style="rounded=1;whiteSpace=wrap;html=1;fontSize=22;strokeColor=none;labelBackgroundColor=none;fillColor=none;" parent="1" vertex="1">
          <mxGeometry x="152" y="1079.37" width="55" height="30" as="geometry" />
        </mxCell>
        <mxCell id="RDKnEIGk1JcvIj0OZwjk-8" value="" style="endArrow=classic;html=1;rounded=0;entryX=0.5;entryY=0;entryDx=0;entryDy=0;exitX=0.5;exitY=1;exitDx=0;exitDy=0;exitPerimeter=0;fontSize=22;" parent="1" source="RDKnEIGk1JcvIj0OZwjk-11" target="RDKnEIGk1JcvIj0OZwjk-7" edge="1">
          <mxGeometry width="50" height="50" relative="1" as="geometry">
            <mxPoint x="179.35000000000002" y="1050.37" as="sourcePoint" />
            <mxPoint x="179.35000000000002" y="1090.37" as="targetPoint" />
          </mxGeometry>
        </mxCell>
        <mxCell id="RDKnEIGk1JcvIj0OZwjk-9" value="&lt;font style=&quot;font-size: 28px;&quot;&gt;MCTS&lt;/font&gt;" style="edgeLabel;html=1;align=center;verticalAlign=middle;resizable=0;points=[];fontSize=26;labelBackgroundColor=none;fontFamily=Garamond;fontStyle=1" parent="RDKnEIGk1JcvIj0OZwjk-8" vertex="1" connectable="0">
          <mxGeometry x="0.2595" relative="1" as="geometry">
            <mxPoint x="-44" y="-6" as="offset" />
          </mxGeometry>
        </mxCell>
        <mxCell id="RDKnEIGk1JcvIj0OZwjk-10" value="$$a _{t+1}$$" style="rounded=1;whiteSpace=wrap;html=1;fontSize=22;strokeColor=none;fillColor=none;container=0;" parent="1" vertex="1">
          <mxGeometry x="263.5" y="968.37" width="40" height="53.88" as="geometry" />
        </mxCell>
        <mxCell id="RDKnEIGk1JcvIj0OZwjk-11" value="$$s_{t}$$" style="rounded=1;whiteSpace=wrap;html=1;fontSize=22;strokeColor=none;fillColor=none;" parent="1" vertex="1">
          <mxGeometry x="159.5" y="996.37" width="40" height="40" as="geometry" />
        </mxCell>
        <mxCell id="Gg5jfgkuLXqiqZAcxpBR-6" value="" style="group" parent="1" vertex="1" connectable="0">
          <mxGeometry x="360" y="1333" width="123.5" height="94" as="geometry" />
        </mxCell>
        <mxCell id="Gg5jfgkuLXqiqZAcxpBR-2" value="" style="rounded=1;whiteSpace=wrap;html=1;fillColor=none;arcSize=5;fontSize=22;" parent="Gg5jfgkuLXqiqZAcxpBR-6" vertex="1">
          <mxGeometry width="123.5" height="94" as="geometry" />
        </mxCell>
        <mxCell id="8oLiAesK85d1lCOAaYAn-105" value="$$ \mathcal{N}_1^2(\cdot&lt;br style=&quot;font-size: 22px;&quot;&gt;)$$" style="rounded=1;whiteSpace=wrap;html=1;fontSize=22;strokeColor=none;fillColor=none;container=0;" parent="Gg5jfgkuLXqiqZAcxpBR-6" vertex="1">
          <mxGeometry x="41.75" y="54" width="40" height="40" as="geometry" />
        </mxCell>
        <mxCell id="8oLiAesK85d1lCOAaYAn-55" value="" style="ellipse;whiteSpace=wrap;html=1;aspect=fixed;fillColor=#0050ef;fontColor=#ffffff;strokeColor=#001DBC;container=0;fontSize=22;" parent="Gg5jfgkuLXqiqZAcxpBR-6" vertex="1">
          <mxGeometry x="5.6299999999999955" y="14" width="10" height="10" as="geometry" />
        </mxCell>
        <mxCell id="8oLiAesK85d1lCOAaYAn-56" value="" style="ellipse;whiteSpace=wrap;html=1;aspect=fixed;fillColor=#980152;fontColor=#ffffff;strokeColor=#A50040;container=0;fontSize=22;" parent="Gg5jfgkuLXqiqZAcxpBR-6" vertex="1">
          <mxGeometry x="15.629999999999995" y="40" width="10" height="10" as="geometry" />
        </mxCell>
        <mxCell id="8oLiAesK85d1lCOAaYAn-58" value="" style="endArrow=none;html=1;rounded=0;exitX=0.5;exitY=1;exitDx=0;exitDy=0;entryX=0;entryY=0;entryDx=0;entryDy=0;strokeWidth=4;fontSize=22;" parent="Gg5jfgkuLXqiqZAcxpBR-6" source="8oLiAesK85d1lCOAaYAn-55" target="8oLiAesK85d1lCOAaYAn-56" edge="1">
          <mxGeometry width="50" height="50" relative="1" as="geometry">
            <mxPoint x="42.629999999999995" y="37" as="sourcePoint" />
            <mxPoint x="78.63" y="11" as="targetPoint" />
          </mxGeometry>
        </mxCell>
        <mxCell id="8oLiAesK85d1lCOAaYAn-60" value="" style="ellipse;whiteSpace=wrap;html=1;aspect=fixed;fillColor=#6896F3;fontColor=#ffffff;strokeColor=#001DBC;container=0;fontSize=22;" parent="Gg5jfgkuLXqiqZAcxpBR-6" vertex="1">
          <mxGeometry x="40.629999999999995" y="4" width="10" height="10" as="geometry" />
        </mxCell>
        <mxCell id="8oLiAesK85d1lCOAaYAn-62" value="" style="endArrow=none;html=1;rounded=0;exitX=0;exitY=1;exitDx=0;exitDy=0;entryX=0.5;entryY=0;entryDx=0;entryDy=0;fontSize=22;" parent="Gg5jfgkuLXqiqZAcxpBR-6" source="8oLiAesK85d1lCOAaYAn-60" target="8oLiAesK85d1lCOAaYAn-56" edge="1">
          <mxGeometry width="50" height="50" relative="1" as="geometry">
            <mxPoint x="72.63" y="67" as="sourcePoint" />
            <mxPoint x="108.63" y="41" as="targetPoint" />
          </mxGeometry>
        </mxCell>
        <mxCell id="8oLiAesK85d1lCOAaYAn-63" value="" style="endArrow=classic;html=1;rounded=0;dashed=1;endSize=3;startSize=3;fontSize=22;" parent="Gg5jfgkuLXqiqZAcxpBR-6" edge="1">
          <mxGeometry width="50" height="50" relative="1" as="geometry">
            <mxPoint x="3.6299999999999955" y="23" as="sourcePoint" />
            <mxPoint x="13.629999999999995" y="47" as="targetPoint" />
          </mxGeometry>
        </mxCell>
        <mxCell id="8oLiAesK85d1lCOAaYAn-64" value="" style="endArrow=classic;html=1;rounded=0;dashed=1;endSize=3;startSize=3;fontSize=22;" parent="Gg5jfgkuLXqiqZAcxpBR-6" edge="1">
          <mxGeometry width="50" height="50" relative="1" as="geometry">
            <mxPoint x="51.129999999999995" y="12" as="sourcePoint" />
            <mxPoint x="26.129999999999995" y="42" as="targetPoint" />
          </mxGeometry>
        </mxCell>
        <mxCell id="8oLiAesK85d1lCOAaYAn-65" value="" style="endArrow=classic;html=1;rounded=0;dashed=1;endSize=3;startSize=3;fontSize=22;exitX=0;exitY=0;exitDx=0;exitDy=0;" parent="Gg5jfgkuLXqiqZAcxpBR-6" edge="1">
          <mxGeometry width="50" height="50" relative="1" as="geometry">
            <mxPoint x="108.84446609406723" y="17.46446609406712" as="sourcePoint" />
            <mxPoint x="68.38" y="8" as="targetPoint" />
          </mxGeometry>
        </mxCell>
        <mxCell id="8oLiAesK85d1lCOAaYAn-67" value="" style="endArrow=classic;html=1;rounded=0;dashed=1;endSize=3;startSize=3;fontSize=22;" parent="Gg5jfgkuLXqiqZAcxpBR-6" edge="1">
          <mxGeometry width="50" height="50" relative="1" as="geometry">
            <mxPoint x="50.379999999999995" y="38" as="sourcePoint" />
            <mxPoint x="60.379999999999995" y="18" as="targetPoint" />
          </mxGeometry>
        </mxCell>
        <mxCell id="8oLiAesK85d1lCOAaYAn-40" value="" style="ellipse;whiteSpace=wrap;html=1;aspect=fixed;fillColor=#d80073;fontColor=#ffffff;strokeColor=#A50040;container=0;fontSize=22;" parent="Gg5jfgkuLXqiqZAcxpBR-6" vertex="1">
          <mxGeometry x="50.379999999999995" y="39" width="10" height="10" as="geometry" />
        </mxCell>
        <mxCell id="8oLiAesK85d1lCOAaYAn-41" value="" style="endArrow=none;html=1;rounded=0;exitX=0.5;exitY=1;exitDx=0;exitDy=0;entryX=0.5;entryY=0;entryDx=0;entryDy=0;strokeWidth=2;fontSize=22;" parent="Gg5jfgkuLXqiqZAcxpBR-6" source="8oLiAesK85d1lCOAaYAn-43" target="8oLiAesK85d1lCOAaYAn-40" edge="1">
          <mxGeometry width="50" height="50" relative="1" as="geometry">
            <mxPoint x="90.38" y="28" as="sourcePoint" />
            <mxPoint x="115.38" y="50" as="targetPoint" />
          </mxGeometry>
        </mxCell>
        <mxCell id="8oLiAesK85d1lCOAaYAn-43" value="" style="ellipse;whiteSpace=wrap;html=1;aspect=fixed;fillColor=#0050ef;fontColor=#ffffff;strokeColor=#001DBC;container=0;fontSize=22;" parent="Gg5jfgkuLXqiqZAcxpBR-6" vertex="1">
          <mxGeometry x="60.379999999999995" y="9" width="10" height="10" as="geometry" />
        </mxCell>
        <mxCell id="8oLiAesK85d1lCOAaYAn-44" value="" style="ellipse;whiteSpace=wrap;html=1;aspect=fixed;fillColor=#980152;fontColor=#ffffff;strokeColor=#A50040;container=0;fontSize=22;" parent="Gg5jfgkuLXqiqZAcxpBR-6" vertex="1">
          <mxGeometry x="70.38" y="35" width="10" height="10" as="geometry" />
        </mxCell>
        <mxCell id="8oLiAesK85d1lCOAaYAn-45" value="" style="ellipse;whiteSpace=wrap;html=1;aspect=fixed;fillColor=#E481B6;fontColor=#ffffff;strokeColor=#A50040;container=0;fontSize=22;" parent="Gg5jfgkuLXqiqZAcxpBR-6" vertex="1">
          <mxGeometry x="109.38" y="17" width="10" height="10" as="geometry" />
        </mxCell>
        <mxCell id="8oLiAesK85d1lCOAaYAn-46" value="" style="endArrow=none;html=1;rounded=0;exitX=0.5;exitY=1;exitDx=0;exitDy=0;entryX=0;entryY=0;entryDx=0;entryDy=0;strokeWidth=4;fontSize=22;" parent="Gg5jfgkuLXqiqZAcxpBR-6" source="8oLiAesK85d1lCOAaYAn-43" target="8oLiAesK85d1lCOAaYAn-44" edge="1">
          <mxGeometry width="50" height="50" relative="1" as="geometry">
            <mxPoint x="108.38" y="32" as="sourcePoint" />
            <mxPoint x="144.38" y="6" as="targetPoint" />
          </mxGeometry>
        </mxCell>
        <mxCell id="8oLiAesK85d1lCOAaYAn-47" value="" style="endArrow=none;html=1;rounded=0;exitX=1;exitY=0.5;exitDx=0;exitDy=0;entryX=0;entryY=0.5;entryDx=0;entryDy=0;strokeWidth=0.5;fontSize=22;" parent="Gg5jfgkuLXqiqZAcxpBR-6" source="8oLiAesK85d1lCOAaYAn-43" target="8oLiAesK85d1lCOAaYAn-45" edge="1">
          <mxGeometry width="50" height="50" relative="1" as="geometry">
            <mxPoint x="148.38" y="72" as="sourcePoint" />
            <mxPoint x="211.38" y="59" as="targetPoint" />
          </mxGeometry>
        </mxCell>
        <mxCell id="8oLiAesK85d1lCOAaYAn-66" value="" style="endArrow=classic;html=1;rounded=0;dashed=1;endSize=3;startSize=3;fontSize=22;" parent="Gg5jfgkuLXqiqZAcxpBR-6" edge="1">
          <mxGeometry width="50" height="50" relative="1" as="geometry">
            <mxPoint x="84.38" y="36" as="sourcePoint" />
            <mxPoint x="74.38" y="16" as="targetPoint" />
          </mxGeometry>
        </mxCell>
        <mxCell id="Gg5jfgkuLXqiqZAcxpBR-47" value="" style="group" parent="1" vertex="1" connectable="0">
          <mxGeometry x="360" y="1174" width="123.5" height="94" as="geometry" />
        </mxCell>
        <mxCell id="Gg5jfgkuLXqiqZAcxpBR-28" value="" style="rounded=1;whiteSpace=wrap;html=1;fillColor=none;arcSize=5;fontSize=22;" parent="Gg5jfgkuLXqiqZAcxpBR-47" vertex="1">
          <mxGeometry width="123.5" height="94" as="geometry" />
        </mxCell>
        <mxCell id="8oLiAesK85d1lCOAaYAn-104" value="$$ \mathcal{N}_1^1(\cdot&lt;br style=&quot;font-size: 22px;&quot;&gt;)$$" style="rounded=1;whiteSpace=wrap;html=1;fontSize=22;strokeColor=none;fillColor=none;container=0;" parent="Gg5jfgkuLXqiqZAcxpBR-47" vertex="1">
          <mxGeometry x="41.74999999999997" y="54" width="40" height="40" as="geometry" />
        </mxCell>
        <mxCell id="8oLiAesK85d1lCOAaYAn-99" value="" style="endArrow=classic;html=1;rounded=0;dashed=1;endSize=3;startSize=3;fontSize=22;exitX=0.398;exitY=-0.038;exitDx=0;exitDy=0;exitPerimeter=0;" parent="Gg5jfgkuLXqiqZAcxpBR-47" edge="1">
          <mxGeometry width="50" height="50" relative="1" as="geometry">
            <mxPoint x="48.97999999999999" y="26.61999999999989" as="sourcePoint" />
            <mxPoint x="14.460000000000008" y="26.539999999999964" as="targetPoint" />
          </mxGeometry>
        </mxCell>
        <mxCell id="8oLiAesK85d1lCOAaYAn-75" value="" style="ellipse;whiteSpace=wrap;html=1;aspect=fixed;fillColor=#6896F3;fontColor=#ffffff;strokeColor=#001DBC;container=0;fontSize=22;" parent="Gg5jfgkuLXqiqZAcxpBR-47" vertex="1">
          <mxGeometry x="15.999999999999972" y="3" width="10" height="10" as="geometry" />
        </mxCell>
        <mxCell id="8oLiAesK85d1lCOAaYAn-76" value="" style="endArrow=none;html=1;rounded=0;exitX=1;exitY=0;exitDx=0;exitDy=0;entryX=0;entryY=1;entryDx=0;entryDy=0;strokeWidth=0.5;fontSize=22;" parent="Gg5jfgkuLXqiqZAcxpBR-47" source="8oLiAesK85d1lCOAaYAn-69" target="8oLiAesK85d1lCOAaYAn-75" edge="1">
          <mxGeometry width="50" height="50" relative="1" as="geometry">
            <mxPoint x="22.99999999999997" y="27" as="sourcePoint" />
            <mxPoint x="72.99999999999997" y="-23" as="targetPoint" />
          </mxGeometry>
        </mxCell>
        <mxCell id="8oLiAesK85d1lCOAaYAn-69" value="" style="ellipse;whiteSpace=wrap;html=1;aspect=fixed;fillColor=#1662f8;fontColor=#ffffff;strokeColor=#001DBC;container=0;fontSize=22;" parent="Gg5jfgkuLXqiqZAcxpBR-47" vertex="1">
          <mxGeometry x="2.9999999999999716" y="27" width="10" height="10" as="geometry" />
        </mxCell>
        <mxCell id="8oLiAesK85d1lCOAaYAn-70" value="" style="ellipse;whiteSpace=wrap;html=1;aspect=fixed;fillColor=#0447cd;fontColor=#ffffff;strokeColor=#001DBC;container=0;fontSize=22;" parent="Gg5jfgkuLXqiqZAcxpBR-47" vertex="1">
          <mxGeometry x="12.999999999999972" y="41" width="10" height="10" as="geometry" />
        </mxCell>
        <mxCell id="8oLiAesK85d1lCOAaYAn-71" value="" style="ellipse;whiteSpace=wrap;html=1;aspect=fixed;fillColor=#042C7C;fontColor=#ffffff;strokeColor=#001DBC;container=0;fontSize=22;" parent="Gg5jfgkuLXqiqZAcxpBR-47" vertex="1">
          <mxGeometry x="47.99999999999997" y="27" width="10" height="10" as="geometry" />
        </mxCell>
        <mxCell id="8oLiAesK85d1lCOAaYAn-72" value="" style="endArrow=none;html=1;rounded=0;exitX=1;exitY=1;exitDx=0;exitDy=0;entryX=0;entryY=0;entryDx=0;entryDy=0;strokeWidth=4;fontSize=22;" parent="Gg5jfgkuLXqiqZAcxpBR-47" source="8oLiAesK85d1lCOAaYAn-69" target="8oLiAesK85d1lCOAaYAn-70" edge="1">
          <mxGeometry width="50" height="50" relative="1" as="geometry">
            <mxPoint x="29.99999999999997" y="40" as="sourcePoint" />
            <mxPoint x="65.99999999999997" y="14" as="targetPoint" />
          </mxGeometry>
        </mxCell>
        <mxCell id="8oLiAesK85d1lCOAaYAn-74" value="" style="endArrow=none;html=1;rounded=0;exitX=1;exitY=0.5;exitDx=0;exitDy=0;entryX=0;entryY=0.5;entryDx=0;entryDy=0;strokeWidth=1.5;fontSize=22;" parent="Gg5jfgkuLXqiqZAcxpBR-47" source="8oLiAesK85d1lCOAaYAn-69" target="8oLiAesK85d1lCOAaYAn-71" edge="1">
          <mxGeometry width="50" height="50" relative="1" as="geometry">
            <mxPoint x="69.99999999999997" y="80" as="sourcePoint" />
            <mxPoint x="132.99999999999997" y="67" as="targetPoint" />
          </mxGeometry>
        </mxCell>
        <mxCell id="8oLiAesK85d1lCOAaYAn-97" value="" style="endArrow=classic;html=1;rounded=0;dashed=1;endSize=3;startSize=3;exitX=0;exitY=0.5;exitDx=0;exitDy=0;entryX=0.5;entryY=0;entryDx=0;entryDy=0;fontSize=22;" parent="Gg5jfgkuLXqiqZAcxpBR-47" edge="1">
          <mxGeometry width="50" height="50" relative="1" as="geometry">
            <mxPoint x="12.999999999999972" y="7" as="sourcePoint" />
            <mxPoint x="4.999999999999972" y="26" as="targetPoint" />
          </mxGeometry>
        </mxCell>
        <mxCell id="8oLiAesK85d1lCOAaYAn-98" value="" style="endArrow=classic;html=1;rounded=0;dashed=1;endSize=3;startSize=3;exitX=0;exitY=1;exitDx=0;exitDy=0;entryX=0;entryY=1;entryDx=0;entryDy=0;entryPerimeter=0;fontSize=22;" parent="Gg5jfgkuLXqiqZAcxpBR-47" edge="1">
          <mxGeometry width="50" height="50" relative="1" as="geometry">
            <mxPoint x="9.464466094077096" y="52.535533905922875" as="sourcePoint" />
            <mxPoint x="3.9999999999999716" y="38" as="targetPoint" />
          </mxGeometry>
        </mxCell>
        <mxCell id="8oLiAesK85d1lCOAaYAn-96" value="" style="endArrow=classic;html=1;rounded=0;dashed=1;endSize=3;startSize=3;fontSize=22;" parent="Gg5jfgkuLXqiqZAcxpBR-47" edge="1">
          <mxGeometry width="50" height="50" relative="1" as="geometry">
            <mxPoint x="65.99999999999997" y="35.539999999999964" as="sourcePoint" />
            <mxPoint x="71.99999999999997" y="52.539999999999964" as="targetPoint" />
          </mxGeometry>
        </mxCell>
        <mxCell id="8oLiAesK85d1lCOAaYAn-83" value="" style="ellipse;whiteSpace=wrap;html=1;aspect=fixed;fillColor=#6896F3;fontColor=#ffffff;strokeColor=#001DBC;container=0;fontSize=22;" parent="Gg5jfgkuLXqiqZAcxpBR-47" vertex="1">
          <mxGeometry x="78.99999999999997" y="2.5399999999999636" width="10" height="10" as="geometry" />
        </mxCell>
        <mxCell id="8oLiAesK85d1lCOAaYAn-86" value="" style="endArrow=none;html=1;rounded=0;exitX=0.5;exitY=1;exitDx=0;exitDy=0;entryX=0.5;entryY=0;entryDx=0;entryDy=0;strokeWidth=0.5;fontSize=22;" parent="Gg5jfgkuLXqiqZAcxpBR-47" source="8oLiAesK85d1lCOAaYAn-83" target="8oLiAesK85d1lCOAaYAn-88" edge="1">
          <mxGeometry width="50" height="50" relative="1" as="geometry">
            <mxPoint x="133.99999999999997" y="69.53999999999996" as="sourcePoint" />
            <mxPoint x="169.99999999999997" y="43.539999999999964" as="targetPoint" />
          </mxGeometry>
        </mxCell>
        <mxCell id="8oLiAesK85d1lCOAaYAn-87" value="" style="ellipse;whiteSpace=wrap;html=1;aspect=fixed;fillColor=#1662f8;fontColor=#ffffff;strokeColor=#001DBC;container=0;fontSize=22;" parent="Gg5jfgkuLXqiqZAcxpBR-47" vertex="1">
          <mxGeometry x="65.99999999999997" y="26.539999999999964" width="10" height="10" as="geometry" />
        </mxCell>
        <mxCell id="8oLiAesK85d1lCOAaYAn-88" value="" style="ellipse;whiteSpace=wrap;html=1;aspect=fixed;fillColor=#0447cd;fontColor=#ffffff;strokeColor=#001DBC;container=0;fontSize=22;" parent="Gg5jfgkuLXqiqZAcxpBR-47" vertex="1">
          <mxGeometry x="75.99999999999997" y="40.539999999999964" width="10" height="10" as="geometry" />
        </mxCell>
        <mxCell id="8oLiAesK85d1lCOAaYAn-89" value="" style="ellipse;whiteSpace=wrap;html=1;aspect=fixed;fillColor=#042C7C;fontColor=#ffffff;strokeColor=#001DBC;container=0;fontSize=22;" parent="Gg5jfgkuLXqiqZAcxpBR-47" vertex="1">
          <mxGeometry x="110.99999999999997" y="26.539999999999964" width="10" height="10" as="geometry" />
        </mxCell>
        <mxCell id="8oLiAesK85d1lCOAaYAn-90" value="" style="endArrow=none;html=1;rounded=0;exitX=1;exitY=1;exitDx=0;exitDy=0;entryX=0;entryY=0;entryDx=0;entryDy=0;strokeWidth=4;fontSize=22;" parent="Gg5jfgkuLXqiqZAcxpBR-47" source="8oLiAesK85d1lCOAaYAn-87" target="8oLiAesK85d1lCOAaYAn-88" edge="1">
          <mxGeometry width="50" height="50" relative="1" as="geometry">
            <mxPoint x="103.99999999999997" y="39.539999999999964" as="sourcePoint" />
            <mxPoint x="139.99999999999997" y="13.539999999999964" as="targetPoint" />
          </mxGeometry>
        </mxCell>
        <mxCell id="8oLiAesK85d1lCOAaYAn-91" value="" style="endArrow=none;html=1;rounded=0;exitX=1;exitY=0;exitDx=0;exitDy=0;entryX=0;entryY=1;entryDx=0;entryDy=0;strokeWidth=1.5;fontSize=22;" parent="Gg5jfgkuLXqiqZAcxpBR-47" source="8oLiAesK85d1lCOAaYAn-88" target="8oLiAesK85d1lCOAaYAn-89" edge="1">
          <mxGeometry width="50" height="50" relative="1" as="geometry">
            <mxPoint x="113.99999999999997" y="49.539999999999964" as="sourcePoint" />
            <mxPoint x="149.99999999999997" y="23.539999999999964" as="targetPoint" />
          </mxGeometry>
        </mxCell>
        <mxCell id="8oLiAesK85d1lCOAaYAn-94" value="" style="endArrow=classic;html=1;rounded=0;dashed=1;endSize=3;startSize=3;fontSize=22;exitX=1;exitY=1;exitDx=0;exitDy=0;entryX=1;entryY=0;entryDx=0;entryDy=0;" parent="Gg5jfgkuLXqiqZAcxpBR-47" edge="1">
          <mxGeometry width="50" height="50" relative="1" as="geometry">
            <mxPoint x="90.53553390588624" y="9.07553390588646" as="sourcePoint" />
            <mxPoint x="87.53553390593262" y="40.00446609406754" as="targetPoint" />
          </mxGeometry>
        </mxCell>
        <mxCell id="8oLiAesK85d1lCOAaYAn-95" value="" style="endArrow=classic;html=1;rounded=0;dashed=1;endSize=3;startSize=3;fontSize=22;exitX=0.36;exitY=1.029;exitDx=0;exitDy=0;exitPerimeter=0;entryX=1;entryY=0.5;entryDx=0;entryDy=0;" parent="Gg5jfgkuLXqiqZAcxpBR-47" edge="1">
          <mxGeometry width="50" height="50" relative="1" as="geometry">
            <mxPoint x="116.59999999999988" y="39.82999999999993" as="sourcePoint" />
            <mxPoint x="87.99999999999997" y="48.539999999999964" as="targetPoint" />
          </mxGeometry>
        </mxCell>
        <mxCell id="I_ZiAdKAHcvQj_IG66GC-1" value="&lt;font style=&quot;font-size: 24px;&quot;&gt;&lt;b style=&quot;&quot;&gt;representation&lt;/b&gt;&lt;/font&gt;" style="rounded=1;whiteSpace=wrap;html=1;fillColor=#dae8fc;strokeColor=#6c8ebf;" parent="1" vertex="1">
          <mxGeometry x="1280" y="1322" width="210" height="79.5" as="geometry" />
        </mxCell>
        <mxCell id="I_ZiAdKAHcvQj_IG66GC-2" value="&lt;font style=&quot;font-size: 24px;&quot;&gt;&lt;b style=&quot;&quot;&gt;representation&lt;/b&gt;&lt;/font&gt;" style="rounded=1;whiteSpace=wrap;html=1;fillColor=#dae8fc;strokeColor=#6c8ebf;" parent="1" vertex="1">
          <mxGeometry x="1280" y="1174" width="210" height="79.5" as="geometry" />
        </mxCell>
      </root>
    </mxGraphModel>
  </diagram>
</mxfile>
